<svg width="529" height="1124" viewBox="0 0 529 1124" fill="none" xmlns="http://www.w3.org/2000/svg">
<g clip-path="url(#clip0_44_1030)">
<path d="M0 114.496C0 63.5184 0 38.0295 14.8449 21.1246C16.9529 18.7241 19.2515 16.4885 21.7196 14.4382C39.1007 0 65.3075 0 117.721 0H404.885C457.299 0 483.505 0 500.886 14.4382C503.354 16.4885 505.653 18.7241 507.76 21.1246C522.606 38.0295 522.606 63.5184 522.606 114.496V1009.5C522.606 1060.48 522.606 1085.97 507.76 1102.87C505.653 1105.28 503.354 1107.51 500.886 1109.56C483.505 1124 457.299 1124 404.885 1124H117.721C65.3075 1124 39.1007 1124 21.7196 1109.56C19.2515 1107.51 16.9529 1105.28 14.8449 1102.87C0 1085.97 0 1060.48 0 1009.5V114.496Z" fill="#3A4245"/>
<path fill-rule="evenodd" clip-rule="evenodd" d="M14.5492 27.0089C2.69358 41.6358 2.69358 63.0622 2.69358 105.915V1018.08C2.69358 1060.94 2.69358 1082.36 14.5492 1096.99C17.2375 1100.31 20.3186 1103.3 23.7286 1105.92C38.7674 1117.45 60.7975 1117.45 104.857 1117.45H417.747C461.808 1117.45 483.838 1117.45 498.877 1105.92C502.287 1103.3 505.368 1100.31 508.056 1096.99C519.912 1082.36 519.912 1060.94 519.912 1018.08V105.915C519.912 63.0622 519.912 41.6358 508.056 27.0089C505.368 23.6923 502.287 20.6956 498.877 18.0809C483.838 6.55011 461.808 6.55011 417.747 6.55011H104.857C60.7975 6.55011 38.7674 6.55011 23.7286 18.0809C20.3186 20.6956 17.2375 23.6923 14.5492 27.0089ZM521.589 204.706H523.74C526.116 204.706 528.044 205.914 528.044 207.404V341.408C528.044 342.899 526.116 344.108 523.74 344.108H521.589V204.706ZM521.589 420.715H523.74C526.116 420.715 528.044 421.922 528.044 423.41V490.861C528.044 492.349 526.116 493.555 523.74 493.555H521.589V420.715Z" fill="#121515"/>
<mask id="mask0_44_1030" style="mask-type:alpha" maskUnits="userSpaceOnUse" x="11" y="20" width="499" height="1074">
<path d="M11.6194 65.8138C11.6194 40.5634 32.7252 20.0939 58.7605 20.0939H462.827C488.863 20.0939 509.969 40.5634 509.969 65.8138V1048.14C509.969 1073.39 488.863 1093.86 462.827 1093.86H58.7605C32.7252 1093.86 11.6194 1073.39 11.6194 1048.14V65.8138Z" fill="white"/>
</mask>
<g mask="url(#mask0_44_1030)">
<mask id="mask1_44_1030" style="mask-type:luminance" maskUnits="userSpaceOnUse" x="3" y="20" width="516" height="1076">
<path d="M518.678 20.6475H3.87073V1095.6H518.678V20.6475Z" fill="white"/>
</mask>
<g mask="url(#mask1_44_1030)">
<path d="M509.055 20.6475H13.4932C8.17891 20.6475 3.87073 24.8054 3.87073 29.9344V1086.31C3.87073 1091.44 8.17891 1095.6 13.4932 1095.6H509.055C514.37 1095.6 518.678 1091.44 518.678 1086.31V29.9344C518.678 24.8054 514.37 20.6475 509.055 20.6475Z" fill="white"/>
<path d="M135.249 388.318V409.532H131.4V388.318H135.249ZM145.684 409.91C141.385 409.91 138.708 406.862 138.708 402.423C138.708 397.953 141.415 394.761 145.896 394.761C147.97 394.761 149.804 395.603 150.737 397.025V387.941H154.375V409.532H151.008L150.766 407.298C149.864 408.953 147.939 409.91 145.684 409.91ZM146.497 406.66C149.053 406.66 150.706 404.889 150.706 402.307C150.706 399.723 149.053 397.924 146.497 397.924C143.941 397.924 142.377 399.753 142.377 402.307C142.377 404.861 143.941 406.66 146.497 406.66ZM164.843 409.91C160.422 409.91 157.326 406.804 157.326 402.365C157.326 397.866 160.363 394.761 164.723 394.761C169.173 394.761 172 397.634 172 402.103V403.177L160.813 403.206C161.084 405.73 162.468 407.008 164.903 407.008C166.918 407.008 168.241 406.253 168.662 404.889H172.06C171.428 408.024 168.723 409.91 164.843 409.91ZM164.753 397.662C162.588 397.662 161.265 398.795 160.904 400.943H168.361C168.361 398.968 166.949 397.662 164.753 397.662ZM178.606 409.532H174.938V395.196H178.335L178.636 397.053C179.568 395.603 181.372 394.761 183.388 394.761C187.115 394.761 189.04 396.995 189.04 400.711V409.532H185.372V401.552C185.372 399.143 184.138 397.982 182.244 397.982C179.989 397.982 178.606 399.491 178.606 401.813V409.532ZM197.695 409.532H194.027V398.157H191.17V395.196H194.027V390.727H197.695V395.196H200.583V398.157H197.695V409.532ZM204.697 392.324C203.434 392.324 202.442 391.365 202.442 390.175C202.442 388.985 203.434 388.057 204.697 388.057C205.9 388.057 206.892 388.985 206.892 390.175C206.892 391.365 205.9 392.324 204.697 392.324ZM202.862 409.532V395.196H206.532V409.532H202.862ZM215.374 409.532H211.705V398.157H208.848V395.196H211.705V390.727H215.374V395.196H218.26V398.157H215.374V409.532ZM219.249 416.178V413.219H221.445C222.887 413.219 223.79 412.899 224.421 411.216L224.842 410.143L218.858 395.196H222.737L226.557 405.644L230.586 395.196H234.374L227.097 412.725C225.985 415.395 224.421 416.498 221.985 416.498C220.963 416.498 220.061 416.382 219.249 416.178ZM251.269 409.532L242.968 388.318H247.058L251.87 400.536C252.351 401.813 252.772 403.06 253.253 404.773C253.794 402.916 254.245 401.61 254.666 400.536L259.418 388.318H263.416L255.237 409.532H251.269ZM269.738 409.91C265.318 409.91 262.221 406.804 262.221 402.365C262.221 397.866 265.259 394.761 269.618 394.761C274.068 394.761 276.895 397.634 276.895 402.103V403.177L265.709 403.206C265.98 405.73 267.363 407.008 269.799 407.008C271.813 407.008 273.137 406.253 273.558 404.889H276.956C276.324 408.024 273.618 409.91 269.738 409.91ZM269.648 397.662C267.483 397.662 266.161 398.795 265.799 400.943H273.257C273.257 398.968 271.844 397.662 269.648 397.662ZM289.154 395.138V398.417H287.801C285.154 398.417 283.5 399.781 283.5 402.567V409.532H279.832V395.225H283.29L283.5 397.315C284.131 395.893 285.545 394.936 287.53 394.936C288.041 394.936 288.551 394.994 289.154 395.138ZM293.47 392.324C292.207 392.324 291.215 391.365 291.215 390.175C291.215 388.985 292.207 388.057 293.47 388.057C294.674 388.057 295.666 388.985 295.666 390.175C295.666 391.365 294.674 392.324 293.47 392.324ZM291.636 409.532V395.196H295.305V409.532H291.636ZM309.469 409.532V398.157H303.394V409.532H299.756V398.157H297.622V395.196H299.756V393.455C299.756 389.566 301.862 387.941 304.868 387.941C305.439 387.941 306.131 387.97 306.763 388.086V391.104H305.469C303.816 391.104 303.394 392.033 303.394 393.455V395.196H313.137V409.532H309.469ZM311.304 392.266C310.07 392.266 309.108 391.337 309.108 390.147C309.108 388.985 310.07 388.057 311.304 388.057C312.506 388.057 313.469 388.985 313.469 390.147C313.469 391.337 312.506 392.266 311.304 392.266ZM316.048 402.335C316.048 397.895 319.085 394.761 323.476 394.761C327.535 394.761 330.302 396.937 330.693 400.39H327.024C326.603 398.766 325.37 397.924 323.627 397.924C321.281 397.924 319.717 399.637 319.717 402.335C319.717 405.035 321.161 406.718 323.505 406.718C325.34 406.718 326.633 405.847 327.024 404.28H330.723C330.271 407.617 327.385 409.91 323.505 409.91C318.995 409.91 316.048 406.892 316.048 402.335ZM337.874 409.91C334.716 409.91 332.791 408.14 332.791 405.441C332.791 402.8 334.776 401.145 338.294 400.885L342.746 400.565V400.246C342.746 398.301 341.542 397.518 339.677 397.518C337.512 397.518 336.31 398.389 336.31 399.898H333.182C333.182 396.793 335.829 394.761 339.858 394.761C343.858 394.761 346.323 396.851 346.323 400.827V409.532H343.106L342.836 407.414C342.204 408.895 340.19 409.91 337.874 409.91ZM339.076 407.24C341.331 407.24 342.775 405.934 342.775 403.729V402.974L339.677 403.206C337.392 403.409 336.52 404.135 336.52 405.296C336.52 406.601 337.422 407.24 339.076 407.24ZM354.773 409.532H351.105V398.157H348.248V395.196H351.105V390.727H354.773V395.196H357.659V398.157H354.773V409.532ZM361.775 392.324C360.512 392.324 359.52 391.365 359.52 390.175C359.52 388.985 360.512 388.057 361.775 388.057C362.978 388.057 363.97 388.985 363.97 390.175C363.97 391.365 362.978 392.324 361.775 392.324ZM359.941 409.532V395.196H363.609V409.532H359.941ZM366.527 402.335C366.527 397.866 369.865 394.79 374.466 394.79C379.067 394.79 382.405 397.866 382.405 402.335C382.405 406.804 379.067 409.881 374.466 409.881C369.865 409.881 366.527 406.804 366.527 402.335ZM370.196 402.335C370.196 404.947 371.94 406.718 374.466 406.718C376.991 406.718 378.736 404.947 378.736 402.335C378.736 399.723 376.991 397.953 374.466 397.953C371.94 397.953 370.196 399.723 370.196 402.335ZM388.981 409.532H385.313V395.196H388.711L389.011 397.053C389.944 395.603 391.748 394.761 393.763 394.761C397.492 394.761 399.416 396.995 399.416 400.711V409.532H395.747V401.552C395.747 399.143 394.514 397.982 392.62 397.982C390.365 397.982 388.981 399.491 388.981 401.813V409.532Z" fill="black"/>
<path d="M60.4034 65.2436H41.4657L46.2502 60.7288L44.3658 58.9557L36.3471 66.5012L44.3658 74.0467L46.2502 72.2735L41.4657 67.7588H60.4034V65.2436Z" fill="black"/>
<path d="M285.015 277.189L250.93 310.083L232.363 292.214L225.07 299.252L250.93 324.21L292.307 284.276L285.015 277.189ZM261.274 249.336C232.724 249.336 209.554 271.698 209.554 299.252C209.554 326.805 232.724 349.169 261.274 349.169C289.825 349.169 312.995 326.805 312.995 299.252C312.995 271.698 289.825 249.336 261.274 249.336ZM261.274 339.185C238.414 339.185 219.898 321.316 219.898 299.252C219.898 277.189 238.414 259.319 261.274 259.319C284.135 259.319 302.651 277.189 302.651 299.252C302.651 321.316 284.135 339.185 261.274 339.185Z" fill="#3B82F6"/>
<path d="M92.3309 434.541V446.615H98.6625V447.841H90.9452V434.541H92.3309ZM104.167 448.063C101.434 448.063 99.6059 446.169 99.6059 443.346C99.6059 440.541 101.415 438.61 104.071 438.61C106.592 438.61 108.305 440.337 108.305 442.882V443.513H100.895C100.992 445.705 102.185 446.967 104.186 446.967C105.707 446.967 106.688 446.336 107.035 445.148H108.305C107.804 447.042 106.361 448.063 104.167 448.063ZM104.071 439.706C102.32 439.706 101.165 440.82 100.934 442.585H106.977C106.977 440.857 105.822 439.706 104.071 439.706ZM112.47 447.841H111.161V439.928H109.295V438.852H111.161V436.01H112.47V438.852H114.337V439.928H112.47V447.841ZM115.277 445.314H116.547C116.547 446.354 117.356 447.005 118.664 447.005C120.108 447.005 120.954 446.411 120.954 445.445C120.954 444.701 120.569 444.274 119.472 444.015L117.875 443.625C116.259 443.234 115.469 442.417 115.469 441.191C115.469 439.613 116.836 438.61 118.837 438.61C120.8 438.61 122.071 439.65 122.128 441.322H120.839C120.8 440.281 120.05 439.669 118.799 439.669C117.49 439.669 116.759 440.207 116.759 441.173C116.759 441.86 117.259 442.342 118.279 442.585L119.877 442.975C121.493 443.364 122.225 444.088 122.225 445.389C122.225 447.005 120.8 448.063 118.683 448.063C116.586 448.063 115.277 446.987 115.277 445.314ZM132.347 447.841L128.536 438.852H129.96L132.366 444.646C132.615 445.296 132.865 445.909 133.04 446.503C133.213 445.891 133.463 445.296 133.732 444.646L136.176 438.852H137.543L133.674 447.841H132.347ZM142.602 448.063C139.869 448.063 138.041 446.169 138.041 443.346C138.041 440.541 139.848 438.61 142.505 438.61C145.026 438.61 146.739 440.337 146.739 442.882V443.513H139.33C139.426 445.705 140.62 446.967 142.621 446.967C144.141 446.967 145.123 446.336 145.469 445.148H146.739C146.239 447.042 144.795 448.063 142.602 448.063ZM142.505 439.706C140.754 439.706 139.599 440.82 139.368 442.585H145.412C145.412 440.857 144.257 439.706 142.505 439.706ZM153.731 438.739V439.892H153C151.288 439.892 150.19 441.005 150.19 442.714V447.841H148.862V438.852H150.113L150.209 440.244C150.575 439.279 151.556 438.646 152.866 438.646C153.153 438.646 153.404 438.666 153.731 438.739ZM156.15 436.38C155.611 436.38 155.169 435.953 155.169 435.433C155.169 434.913 155.611 434.468 156.15 434.468C156.689 434.468 157.15 434.913 157.15 435.433C157.15 435.953 156.689 436.38 156.15 436.38ZM155.496 447.841V438.852H156.824V447.841H155.496ZM158.554 438.852H159.979V437.106C159.979 435.081 161.133 434.3 162.558 434.3C162.884 434.3 163.27 434.32 163.577 434.375V435.471H162.789C161.615 435.471 161.306 436.046 161.306 437.106V438.852H163.501V439.928H161.306V447.841H159.979V439.928H158.554V438.852ZM164.364 451.76V450.701H165.385C166.192 450.701 167 450.645 167.462 449.439L167.867 448.379L164.095 438.852H165.5L168.502 446.689L171.446 438.852H172.813L168.541 449.902C168.001 451.314 167.097 451.889 165.769 451.889C165.211 451.889 164.787 451.853 164.364 451.76ZM178.759 451.76V450.701H179.78C180.588 450.701 181.397 450.645 181.859 449.439L182.262 448.379L178.49 438.852H179.895L182.897 446.689L185.842 438.852H187.208L182.936 449.902C182.397 451.314 181.492 451.889 180.165 451.889C179.606 451.889 179.183 451.853 178.759 451.76ZM187.787 443.346C187.787 440.598 189.79 438.61 192.522 438.61C195.255 438.61 197.256 440.598 197.256 443.346C197.256 446.076 195.255 448.063 192.522 448.063C189.79 448.063 187.787 446.076 187.787 443.346ZM189.136 443.327C189.136 445.445 190.521 446.912 192.522 446.912C194.504 446.912 195.909 445.445 195.909 443.327C195.909 441.247 194.504 439.761 192.522 439.761C190.521 439.761 189.136 441.247 189.136 443.327ZM205.698 438.852H207.026V447.841H205.871L205.698 446.318C205.178 447.358 203.888 448.063 202.426 448.063C200.232 448.063 199.039 446.615 199.039 444.423V438.832H200.387V444.015C200.387 446.151 201.368 446.912 202.85 446.912C204.639 446.912 205.698 445.761 205.698 443.625V438.852ZM214.662 438.739V439.892H213.93C212.217 439.892 211.12 441.005 211.12 442.714V447.841H209.792V438.852H211.043L211.139 440.244C211.505 439.279 212.486 438.646 213.795 438.646C214.084 438.646 214.334 438.666 214.662 438.739ZM222.419 436.38C221.879 436.38 221.437 435.953 221.437 435.433C221.437 434.913 221.879 434.468 222.419 434.468C222.957 434.468 223.419 434.913 223.419 435.433C223.419 435.953 222.957 436.38 222.419 436.38ZM221.765 447.841V438.852H223.092V447.841H221.765ZM229.518 448.063C226.804 448.063 225.207 446.058 225.207 443.364C225.207 440.653 226.804 438.61 229.576 438.61C231.115 438.61 232.346 439.259 233.001 440.56V434.3H234.329V447.841H233.174L233.039 446.002C232.385 447.395 231.076 448.063 229.518 448.063ZM229.749 446.894C231.788 446.894 232.982 445.407 232.982 443.327C232.982 441.266 231.788 439.761 229.749 439.761C227.728 439.761 226.554 441.266 226.554 443.327C226.554 445.407 227.728 446.894 229.749 446.894ZM241.007 448.063C238.275 448.063 236.446 446.169 236.446 443.346C236.446 440.541 238.255 438.61 240.91 438.61C243.432 438.61 245.145 440.337 245.145 442.882V443.513H237.735C237.831 445.705 239.024 446.967 241.027 446.967C242.547 446.967 243.528 446.336 243.874 445.148H245.145C244.644 447.042 243.201 448.063 241.007 448.063ZM240.91 439.706C239.16 439.706 238.005 440.82 237.774 442.585H243.816C243.816 440.857 242.661 439.706 240.91 439.706ZM248.595 447.841H247.268V438.852H248.422L248.615 440.412C249.23 439.259 250.462 438.61 251.809 438.61C254.369 438.61 255.427 440.078 255.427 442.342V447.841H254.099V442.621C254.099 440.523 253.117 439.78 251.578 439.78C249.673 439.78 248.595 441.118 248.595 443.141V447.841ZM260.211 447.841H258.902V439.928H257.036V438.852H258.902V436.01H260.211V438.852H262.078V439.928H260.211V447.841ZM264.46 436.38C263.922 436.38 263.479 435.953 263.479 435.433C263.479 434.913 263.922 434.468 264.46 434.468C264.999 434.468 265.461 434.913 265.461 435.433C265.461 435.953 264.999 436.38 264.46 436.38ZM263.806 447.841V438.852H265.134V447.841H263.806ZM270.039 447.841H268.731V439.928H266.864V438.852H268.731V436.01H270.039V438.852H271.906V439.928H270.039V447.841ZM272.693 451.76V450.701H273.712C274.521 450.701 275.329 450.645 275.791 449.439L276.195 448.379L272.423 438.852H273.828L276.831 446.689L279.775 438.852H281.142L276.868 449.902C276.33 451.314 275.426 451.889 274.098 451.889C273.539 451.889 273.116 451.853 272.693 451.76ZM288.687 436.38C288.148 436.38 287.705 435.953 287.705 435.433C287.705 434.913 288.148 434.468 288.687 434.468C289.225 434.468 289.687 434.913 289.687 435.433C289.687 435.953 289.225 436.38 288.687 436.38ZM288.033 447.841V438.852H289.36V447.841H288.033ZM293.457 447.841H292.129V438.852H293.284L293.476 440.412C294.092 439.259 295.324 438.61 296.671 438.61C299.231 438.61 300.289 440.078 300.289 442.342V447.841H298.961V442.621C298.961 440.523 297.979 439.78 296.44 439.78C294.534 439.78 293.457 441.118 293.457 443.141V447.841ZM311.756 440.709H310.66V439.78L314.912 435.731H308.312V434.541H316.665V435.619L312.546 439.576C315.124 439.706 316.972 441.284 316.972 443.699C316.972 446.336 314.97 448.063 312.18 448.063C309.466 448.063 307.638 446.447 307.638 443.792H309.004C309.004 445.705 310.237 446.856 312.18 446.856C314.239 446.856 315.567 445.593 315.567 443.661C315.567 441.842 314.22 440.709 311.756 440.709ZM323.76 445.314H325.029C325.029 446.354 325.838 447.005 327.147 447.005C328.59 447.005 329.437 446.411 329.437 445.445C329.437 444.701 329.052 444.274 327.955 444.015L326.358 443.625C324.741 443.234 323.952 442.417 323.952 441.191C323.952 439.613 325.318 438.61 327.319 438.61C329.283 438.61 330.553 439.65 330.611 441.322H329.322C329.283 440.281 328.532 439.669 327.282 439.669C325.972 439.669 325.241 440.207 325.241 441.173C325.241 441.86 325.741 442.342 326.762 442.585L328.359 442.975C329.976 443.364 330.708 444.088 330.708 445.389C330.708 447.005 329.283 448.063 327.166 448.063C325.068 448.063 323.76 446.987 323.76 445.314ZM333.549 436.38C333.009 436.38 332.567 435.953 332.567 435.433C332.567 434.913 333.009 434.468 333.549 434.468C334.087 434.468 334.549 434.913 334.549 435.433C334.549 435.953 334.087 436.38 333.549 436.38ZM332.893 447.841V438.852H334.222V447.841H332.893ZM338.319 447.841H336.991V438.852H338.146L338.299 440.133C338.761 439.186 339.8 438.61 341.11 438.61C342.571 438.61 343.668 439.352 344.112 440.523C344.535 439.352 345.671 438.61 347.171 438.61C349.192 438.61 350.521 439.872 350.521 441.953V447.841H349.23V442.213C349.23 440.671 348.345 439.761 346.921 439.761C345.362 439.761 344.438 440.894 344.438 442.287V447.841H343.13V442.194C343.13 440.671 342.226 439.78 340.821 439.78C339.262 439.78 338.319 440.894 338.319 442.269V447.841ZM353.191 451.76V438.852H354.346L354.48 440.671C355.136 439.279 356.444 438.61 358.003 438.61C360.697 438.61 362.313 440.598 362.313 443.309C362.313 446.02 360.755 448.063 358.003 448.063C356.425 448.063 355.173 447.414 354.519 446.113V451.76H353.191ZM354.538 443.346C354.538 445.407 355.732 446.912 357.772 446.912C359.792 446.912 360.966 445.407 360.966 443.346C360.966 441.266 359.792 439.78 357.772 439.78C355.732 439.78 354.538 441.266 354.538 443.346ZM365.815 447.841H364.487V434.3H365.815V447.841ZM372.546 448.063C369.814 448.063 367.985 446.169 367.985 443.346C367.985 440.541 369.794 438.61 372.45 438.61C374.971 438.61 376.684 440.337 376.684 442.882V443.513H369.274C369.371 445.705 370.563 446.967 372.566 446.967C374.086 446.967 375.067 446.336 375.413 445.148H376.684C376.184 447.042 374.74 448.063 372.546 448.063ZM372.45 439.706C370.699 439.706 369.544 440.82 369.313 442.585H375.355C375.355 440.857 374.202 439.706 372.45 439.706ZM383.356 445.314H384.626C384.626 446.354 385.435 447.005 386.743 447.005C388.187 447.005 389.033 446.411 389.033 445.445C389.033 444.701 388.649 444.274 387.551 444.015L385.953 443.625C384.338 443.234 383.548 442.417 383.548 441.191C383.548 439.613 384.915 438.61 386.916 438.61C388.88 438.61 390.149 439.65 390.207 441.322H388.918C388.88 440.281 388.129 439.669 386.877 439.669C385.569 439.669 384.837 440.207 384.837 441.173C384.837 441.86 385.338 442.342 386.358 442.585L387.956 442.975C389.572 443.364 390.303 444.088 390.303 445.389C390.303 447.005 388.88 448.063 386.762 448.063C384.664 448.063 383.356 446.987 383.356 445.314ZM394.626 447.841H393.318V439.928H391.451V438.852H393.318V436.01H394.626V438.852H396.493V439.928H394.626V447.841ZM402.035 448.063C399.302 448.063 397.474 446.169 397.474 443.346C397.474 440.541 399.283 438.61 401.938 438.61C404.459 438.61 406.173 440.337 406.173 442.882V443.513H398.763C398.858 445.705 400.052 446.967 402.054 446.967C403.574 446.967 404.556 446.336 404.902 445.148H406.173C405.672 447.042 404.228 448.063 402.035 448.063ZM401.938 439.706C400.187 439.706 399.032 440.82 398.802 442.585H404.844C404.844 440.857 403.689 439.706 401.938 439.706ZM408.295 451.76V438.852H409.45L409.584 440.671C410.238 439.279 411.548 438.61 413.106 438.61C415.8 438.61 417.417 440.598 417.417 443.309C417.417 446.02 415.859 448.063 413.106 448.063C411.528 448.063 410.277 447.414 409.623 446.113V451.76H408.295ZM409.642 443.346C409.642 445.407 410.836 446.912 412.875 446.912C414.896 446.912 416.07 445.407 416.07 443.346C416.07 441.266 414.896 439.78 412.875 439.78C410.836 439.78 409.642 441.266 409.642 443.346ZM418.745 445.314H420.016C420.016 446.354 420.823 447.005 422.132 447.005C423.575 447.005 424.422 446.411 424.422 445.445C424.422 444.701 424.037 444.274 422.941 444.015L421.343 443.625C419.727 443.234 418.937 442.417 418.937 441.191C418.937 439.613 420.303 438.61 422.306 438.61C424.268 438.61 425.539 439.65 425.596 441.322H424.307C424.268 440.281 423.517 439.669 422.267 439.669C420.959 439.669 420.227 440.207 420.227 441.173C420.227 441.86 420.728 442.342 421.747 442.585L423.345 442.975C424.961 443.364 425.693 444.088 425.693 445.389C425.693 447.005 424.268 448.063 422.151 448.063C420.054 448.063 418.745 446.987 418.745 445.314ZM428.863 448.045C428.209 448.045 427.651 447.525 427.651 446.912C427.651 446.281 428.209 445.741 428.863 445.741C429.517 445.741 430.076 446.281 430.076 446.912C430.076 447.525 429.517 448.045 428.863 448.045Z" fill="black"/>
<path d="M472.971 500.66H53.1864C48.2043 500.66 44.1653 504.557 44.1653 509.366V575.534C44.1653 580.343 48.2043 584.241 53.1864 584.241H472.971C477.953 584.241 481.993 580.343 481.993 575.534V509.366C481.993 504.557 477.953 500.66 472.971 500.66Z" stroke="#3B82F6"/>
<path d="M109.719 514.01H60.4033C57.746 514.01 55.592 516.089 55.592 518.653V566.248C55.592 568.812 57.746 570.891 60.4033 570.891H109.719C112.376 570.891 114.53 568.812 114.53 566.248V518.653C114.53 516.089 112.376 514.01 109.719 514.01Z" fill="#BFDBFE"/>
<path d="M90.4738 529.101H80.8512C79.5282 529.101 78.4455 530.145 78.4455 531.422V549.996C78.4455 551.272 79.5282 552.318 80.8512 552.318H95.285C96.6082 552.318 97.6907 551.272 97.6907 549.996V536.066L90.4738 529.101ZM95.285 549.996H80.8512V531.422H89.2709V537.227H95.285V549.996ZM76.04 533.744V554.639H95.285V556.961H76.04C74.7169 556.961 73.6343 555.915 73.6343 554.639V533.744H76.04ZM83.2569 540.709V543.03H92.8795V540.709H83.2569ZM83.2569 545.353V547.675H89.2709V545.353H83.2569Z" fill="#3B82F6"/>
<path d="M132.216 539.572C132.216 537.343 134.064 535.876 136.836 535.876C139.318 535.876 140.954 537.213 141.166 539.441H139.761C139.607 537.937 138.548 537.082 136.816 537.082C134.872 537.082 133.602 538.049 133.602 539.552C133.602 540.723 134.314 541.466 135.758 541.818L138.124 542.376C140.28 542.878 141.397 544.066 141.397 545.868C141.397 548.171 139.549 549.639 136.7 549.639C134.025 549.639 132.216 548.282 132.044 546.109H133.468C133.544 547.503 134.815 548.413 136.7 548.413C138.722 548.413 140.011 547.465 140.011 545.941C140.011 544.753 139.318 543.973 137.837 543.639L135.508 543.082C133.352 542.58 132.216 541.391 132.216 539.572ZM147.507 549.639C144.774 549.639 142.946 547.744 142.946 544.921C142.946 542.116 144.755 540.185 147.41 540.185C149.931 540.185 151.645 541.911 151.645 544.456V545.087H144.235C144.332 547.28 145.524 548.542 147.526 548.542C149.046 548.542 150.028 547.911 150.374 546.722H151.645C151.144 548.617 149.701 549.639 147.507 549.639ZM147.41 541.28C145.659 541.28 144.505 542.394 144.274 544.159H150.316C150.316 542.431 149.163 541.28 147.41 541.28ZM155.153 549.415H153.825V535.876H155.153V549.415ZM161.884 549.639C159.152 549.639 157.323 547.744 157.323 544.921C157.323 542.116 159.132 540.185 161.788 540.185C164.309 540.185 166.022 541.911 166.022 544.456V545.087H158.612C158.709 547.28 159.903 548.542 161.904 548.542C163.424 548.542 164.405 547.911 164.751 546.722H166.022C165.522 548.617 164.078 549.639 161.884 549.639ZM161.788 541.28C160.037 541.28 158.882 542.394 158.651 544.159H164.694C164.694 542.431 163.54 541.28 161.788 541.28ZM167.49 544.939C167.49 542.116 169.28 540.185 171.993 540.185C174.149 540.185 175.727 541.391 176.092 543.249H174.765C174.419 542.004 173.303 541.318 172.013 541.318C170.128 541.318 168.799 542.71 168.799 544.921C168.799 547.056 170.031 548.486 171.917 548.486C173.303 548.486 174.419 547.744 174.784 546.592H176.131C175.689 548.431 174.033 549.639 171.917 549.639C169.28 549.639 167.49 547.762 167.49 544.939ZM180.279 549.415H178.97V541.503H177.104V540.426H178.97V537.584H180.279V540.426H182.145V541.503H180.279V549.415ZM192.87 549.639C190.156 549.639 188.559 547.632 188.559 544.939C188.559 542.227 190.156 540.185 192.928 540.185C194.467 540.185 195.699 540.834 196.353 542.134V535.876H197.681V549.415H196.526L196.392 547.576C195.738 548.97 194.429 549.639 192.87 549.639ZM193.1 548.468C195.14 548.468 196.334 546.982 196.334 544.901C196.334 542.84 195.14 541.336 193.1 541.336C191.08 541.336 189.906 542.84 189.906 544.901C189.906 546.982 191.08 548.468 193.1 548.468ZM199.797 544.921C199.797 542.172 201.798 540.185 204.531 540.185C207.265 540.185 209.266 542.172 209.266 544.921C209.266 547.651 207.265 549.639 204.531 549.639C201.798 549.639 199.797 547.651 199.797 544.921ZM201.144 544.901C201.144 547.019 202.53 548.486 204.531 548.486C206.514 548.486 207.919 547.019 207.919 544.901C207.919 542.821 206.514 541.336 204.531 541.336C202.53 541.336 201.144 542.821 201.144 544.901ZM210.736 544.939C210.736 542.116 212.525 540.185 215.238 540.185C217.394 540.185 218.972 541.391 219.338 543.249H218.01C217.664 542.004 216.548 541.318 215.258 541.318C213.372 541.318 212.044 542.71 212.044 544.921C212.044 547.056 213.276 548.486 215.162 548.486C216.548 548.486 217.664 547.744 218.029 546.592H219.376C218.934 548.431 217.278 549.639 215.162 549.639C212.525 549.639 210.736 547.762 210.736 544.939ZM227.932 540.426H229.26V549.415H228.105L227.932 547.893C227.413 548.933 226.123 549.639 224.661 549.639C222.466 549.639 221.272 548.189 221.272 545.998V540.407H222.62V545.589C222.62 547.725 223.602 548.486 225.083 548.486C226.874 548.486 227.932 547.335 227.932 545.199V540.426ZM233.354 549.415H232.026V540.426H233.181L233.334 541.707C233.796 540.76 234.835 540.185 236.144 540.185C237.606 540.185 238.703 540.927 239.147 542.097C239.57 540.927 240.705 540.185 242.206 540.185C244.226 540.185 245.555 541.447 245.555 543.527V549.415H244.265V543.788C244.265 542.245 243.38 541.336 241.956 541.336C240.397 541.336 239.473 542.469 239.473 543.861V549.415H238.165V543.77C238.165 542.245 237.26 541.354 235.855 541.354C234.297 541.354 233.354 542.469 233.354 543.843V549.415ZM252.133 549.639C249.4 549.639 247.572 547.744 247.572 544.921C247.572 542.116 249.381 540.185 252.036 540.185C254.557 540.185 256.271 541.911 256.271 544.456V545.087H248.861C248.958 547.28 250.151 548.542 252.152 548.542C253.672 548.542 254.654 547.911 255 546.722H256.271C255.77 548.617 254.326 549.639 252.133 549.639ZM252.036 541.28C250.285 541.28 249.131 542.394 248.9 544.159H254.943C254.943 542.431 253.788 541.28 252.036 541.28ZM259.722 549.415H258.393V540.426H259.548L259.74 541.986C260.357 540.834 261.588 540.185 262.935 540.185C265.495 540.185 266.554 541.652 266.554 543.918V549.415H265.225V544.197C265.225 542.097 264.245 541.354 262.704 541.354C260.8 541.354 259.722 542.692 259.722 544.717V549.415ZM271.337 549.415H270.029V541.503H268.162V540.426H270.029V537.584H271.337V540.426H273.204V541.503H271.337V549.415ZM282.407 549.415H281.098V541.503H279.231V540.426H281.098V537.584H282.407V540.426H284.273V541.503H282.407V549.415ZM285.059 553.335V552.275H286.079C286.887 552.275 287.696 552.22 288.158 551.013L288.562 549.953L284.789 540.426H286.194L289.197 548.264L292.141 540.426H293.507L289.235 551.478C288.696 552.888 287.791 553.465 286.464 553.465C285.906 553.465 285.482 553.427 285.059 553.335ZM295.062 553.335V540.426H296.215L296.351 542.245C297.005 540.853 298.315 540.185 299.873 540.185C302.567 540.185 304.184 542.172 304.184 544.883C304.184 547.594 302.625 549.639 299.873 549.639C298.295 549.639 297.044 548.988 296.39 547.687V553.335H295.062ZM296.409 544.921C296.409 546.982 297.602 548.486 299.642 548.486C301.663 548.486 302.837 546.982 302.837 544.921C302.837 542.84 301.663 541.354 299.642 541.354C297.602 541.354 296.409 542.84 296.409 544.921ZM310.207 549.639C307.474 549.639 305.646 547.744 305.646 544.921C305.646 542.116 307.455 540.185 310.11 540.185C312.631 540.185 314.345 541.911 314.345 544.456V545.087H306.935C307.03 547.28 308.224 548.542 310.226 548.542C311.746 548.542 312.728 547.911 313.074 546.722H314.345C313.844 548.617 312.4 549.639 310.207 549.639ZM310.11 541.28C308.359 541.28 307.204 542.394 306.974 544.159H313.016C313.016 542.431 311.861 541.28 310.11 541.28ZM331.135 549.415L329.902 548.041C328.825 549.081 327.323 549.657 325.514 549.657C322.609 549.657 320.722 548.227 320.722 546.034C320.722 544.345 321.762 543.1 324.245 541.8C322.993 540.388 322.493 539.59 322.493 538.605C322.493 537.009 323.744 535.894 325.611 535.894C327.381 535.894 328.594 536.934 328.594 538.494C328.594 539.813 327.882 540.834 326.054 542.024L329.807 546.202C330.191 545.421 330.403 544.456 330.403 543.341H331.692C331.692 544.828 331.327 546.109 330.653 547.131L332.713 549.415H331.135ZM325.341 541.225L325.361 541.243C326.708 540.426 327.323 539.572 327.323 538.531C327.323 537.565 326.669 536.971 325.592 536.971C324.476 536.971 323.783 537.602 323.783 538.605C323.783 539.274 324.09 539.831 325.341 541.225ZM322.089 545.961C322.089 547.576 323.398 548.542 325.592 548.542C327.112 548.542 328.305 548.078 329.132 547.187L324.938 542.562C322.859 543.677 322.089 544.604 322.089 545.961ZM338.254 544.939C338.254 542.116 340.044 540.185 342.757 540.185C344.913 540.185 346.491 541.391 346.856 543.249H345.529C345.182 542.004 344.065 541.318 342.777 541.318C340.89 541.318 339.563 542.71 339.563 544.921C339.563 547.056 340.795 548.486 342.68 548.486C344.065 548.486 345.182 547.744 345.548 546.592H346.895C346.452 548.431 344.797 549.639 342.68 549.639C340.044 549.639 338.254 547.762 338.254 544.939ZM348.251 544.921C348.251 542.172 350.253 540.185 352.986 540.185C355.719 540.185 357.72 542.172 357.72 544.921C357.72 547.651 355.719 549.639 352.986 549.639C350.253 549.639 348.251 547.651 348.251 544.921ZM349.599 544.901C349.599 547.019 350.985 548.486 352.986 548.486C354.968 548.486 356.373 547.019 356.373 544.901C356.373 542.821 354.968 541.336 352.986 541.336C350.985 541.336 349.599 542.821 349.599 544.901ZM366.162 540.426H367.49V549.415H366.335L366.162 547.893C365.642 548.933 364.352 549.639 362.89 549.639C360.695 549.639 359.503 548.189 359.503 545.998V540.407H360.85V545.589C360.85 547.725 361.831 548.486 363.313 548.486C365.103 548.486 366.162 547.335 366.162 545.199V540.426ZM371.584 549.415H370.256V540.426H371.411L371.603 541.986C372.219 540.834 373.451 540.185 374.798 540.185C377.358 540.185 378.416 541.652 378.416 543.918V549.415H377.088V544.197C377.088 542.097 376.106 541.354 374.567 541.354C372.661 541.354 371.584 542.692 371.584 544.717V549.415ZM383.2 549.415H381.892V541.503H380.025V540.426H381.892V537.584H383.2V540.426H385.067V541.503H383.2V549.415ZM391.664 540.314V541.466H390.932C389.22 541.466 388.122 542.58 388.122 544.29V549.415H386.794V540.426H388.046L388.141 541.818C388.508 540.853 389.488 540.221 390.798 540.221C391.087 540.221 391.336 540.24 391.664 540.314ZM392.768 553.335V552.275H393.788C394.597 552.275 395.404 552.22 395.866 551.013L396.27 549.953L392.499 540.426H393.904L396.906 548.264L399.85 540.426H401.217L396.945 551.478C396.405 552.888 395.501 553.465 394.173 553.465C393.615 553.465 393.191 553.427 392.768 553.335ZM407.454 544.921C407.454 542.172 409.455 540.185 412.188 540.185C414.92 540.185 416.922 542.172 416.922 544.921C416.922 547.651 414.92 549.639 412.188 549.639C409.455 549.639 407.454 547.651 407.454 544.921ZM408.801 544.901C408.801 547.019 410.187 548.486 412.188 548.486C414.17 548.486 415.575 547.019 415.575 544.901C415.575 542.821 414.17 541.336 412.188 541.336C410.187 541.336 408.801 542.821 408.801 544.901ZM417.931 540.426H419.355V538.68C419.355 536.655 420.51 535.876 421.934 535.876C422.261 535.876 422.646 535.894 422.954 535.949V537.045H422.165C420.991 537.045 420.683 537.62 420.683 538.68V540.426H422.877V541.503H420.683V549.415H419.355V541.503H417.931V540.426ZM430.676 537.956C430.138 537.956 429.695 537.529 429.695 537.009C429.695 536.489 430.138 536.042 430.676 536.042C431.215 536.042 431.677 536.489 431.677 537.009C431.677 537.529 431.215 537.956 430.676 537.956ZM430.021 549.415V540.426H431.349V549.415H430.021ZM433.33 546.89H434.599C434.599 547.93 435.408 548.579 436.717 548.579C438.16 548.579 439.007 547.985 439.007 547.019C439.007 546.277 438.622 545.85 437.526 545.589L435.928 545.199C434.312 544.81 433.522 543.991 433.522 542.766C433.522 541.187 434.888 540.185 436.889 540.185C438.853 540.185 440.123 541.225 440.181 542.896H438.892C438.853 541.856 438.102 541.243 436.851 541.243C435.542 541.243 434.811 541.782 434.811 542.747C434.811 543.434 435.312 543.918 436.332 544.159L437.929 544.549C439.546 544.939 440.278 545.664 440.278 546.963C440.278 548.579 438.853 549.639 436.736 549.639C434.638 549.639 433.33 548.561 433.33 546.89ZM441.674 546.89H442.943C442.943 547.93 443.752 548.579 445.061 548.579C446.504 548.579 447.351 547.985 447.351 547.019C447.351 546.277 446.966 545.85 445.868 545.589L444.271 545.199C442.656 544.81 441.866 543.991 441.866 542.766C441.866 541.187 443.232 540.185 445.233 540.185C447.197 540.185 448.467 541.225 448.525 542.896H447.236C447.197 541.856 446.446 541.243 445.195 541.243C443.886 541.243 443.155 541.782 443.155 542.747C443.155 543.434 443.655 543.918 444.676 544.159L446.273 544.549C447.89 544.939 448.62 545.664 448.62 546.963C448.62 548.579 447.197 549.639 445.08 549.639C442.982 549.639 441.674 548.561 441.674 546.89ZM457.351 540.426H458.679V549.415H457.524L457.351 547.893C456.831 548.933 455.543 549.639 454.079 549.639C451.886 549.639 450.693 548.189 450.693 545.998V540.407H452.04V545.589C452.04 547.725 453.021 548.486 454.503 548.486C456.292 548.486 457.351 547.335 457.351 545.199V540.426ZM465.164 549.639C462.431 549.639 460.603 547.744 460.603 544.921C460.603 542.116 462.412 540.185 465.067 540.185C467.588 540.185 469.302 541.911 469.302 544.456V545.087H461.892C461.987 547.28 463.181 548.542 465.183 548.542C466.703 548.542 467.685 547.911 468.031 546.722H469.302C468.801 548.617 467.357 549.639 465.164 549.639ZM465.067 541.28C463.316 541.28 462.161 542.394 461.931 544.159H467.973C467.973 542.431 466.818 541.28 465.067 541.28Z" fill="black"/>
<path d="M472.971 607.458H53.1864C48.2043 607.458 44.1653 611.355 44.1653 616.165V682.333C44.1653 687.141 48.2043 691.039 53.1864 691.039H472.971C477.953 691.039 481.993 687.141 481.993 682.333V616.165C481.993 611.355 477.953 607.458 472.971 607.458Z" stroke="#3B82F6"/>
<path d="M109.719 620.808H60.4033C57.746 620.808 55.592 622.887 55.592 625.451V673.046C55.592 675.611 57.746 677.689 60.4033 677.689H109.719C112.376 677.689 114.53 675.611 114.53 673.046V625.451C114.53 622.887 112.376 620.808 109.719 620.808Z" fill="#BFDBFE"/>
<path d="M90.6243 633.577H75.7394C73.9201 633.577 72.4316 634.988 72.4316 636.712V661.786C72.4316 663.51 73.9201 664.92 75.7394 664.92H95.5859C97.4052 664.92 98.8937 663.51 98.8937 661.786V641.413L90.6243 633.577ZM75.7394 661.786V636.712H88.9704V642.98H95.5859V661.786H75.7394ZM92.2781 646.114V653.95C92.2781 657.413 89.3178 660.219 85.6626 660.219C82.0075 660.219 79.0472 657.413 79.0472 653.95V643.763C79.0472 641.461 81.1311 639.626 83.6118 639.862C85.7619 640.064 87.3165 641.93 87.3165 643.982V653.95H84.0088V643.763C84.0088 643.324 83.645 642.98 83.1819 642.98C82.7187 642.98 82.3548 643.324 82.3548 643.763V653.95C82.3548 655.674 83.8434 657.084 85.6626 657.084C87.4819 657.084 88.9704 655.674 88.9704 653.95V646.114H92.2781Z" fill="#3B82F6"/>
<path d="M132.948 651.588V642.915H134.334V651.533C134.334 653.874 135.661 655.136 138.066 655.136C140.415 655.136 141.742 653.836 141.742 651.533V642.915H143.128V651.588C143.128 654.598 141.204 656.437 138.066 656.437C134.872 656.437 132.948 654.616 132.948 651.588ZM146.099 660.133V647.224H147.254L147.388 649.045C148.043 647.651 149.352 646.983 150.911 646.983C153.605 646.983 155.221 648.97 155.221 651.681C155.221 654.394 153.663 656.437 150.911 656.437C149.333 656.437 148.081 655.786 147.427 654.487V660.133H146.099ZM147.446 651.719C147.446 653.781 148.64 655.286 150.68 655.286C152.7 655.286 153.874 653.781 153.874 651.719C153.874 649.638 152.7 648.153 150.68 648.153C148.64 648.153 147.446 649.638 147.446 651.719ZM158.725 656.213H157.397V642.674H158.725V656.213ZM160.895 651.719C160.895 648.97 162.896 646.983 165.629 646.983C168.361 646.983 170.363 648.97 170.363 651.719C170.363 654.449 168.361 656.437 165.629 656.437C162.896 656.437 160.895 654.449 160.895 651.719ZM162.242 651.701C162.242 653.818 163.627 655.286 165.629 655.286C167.61 655.286 169.015 653.818 169.015 651.701C169.015 649.62 167.61 648.134 165.629 648.134C163.627 648.134 162.242 649.62 162.242 651.701ZM175.161 656.437C173.179 656.437 172.005 655.359 172.005 653.781C172.005 652.128 173.313 651.088 175.487 650.92L178.567 650.679V650.382C178.567 648.618 177.47 648.06 176.104 648.06C174.487 648.06 173.525 648.766 173.525 649.973H172.312C172.312 648.153 173.853 646.983 176.143 646.983C178.298 646.983 179.875 648.023 179.875 650.4V656.213H178.759L178.587 654.635C178.008 655.768 176.739 656.437 175.161 656.437ZM175.468 655.397C177.432 655.397 178.567 654.078 178.567 652.128V651.645L175.815 651.849C174.064 651.997 173.352 652.741 173.352 653.743C173.352 654.839 174.198 655.397 175.468 655.397ZM186.198 656.437C183.484 656.437 181.887 654.43 181.887 651.737C181.887 649.025 183.484 646.983 186.256 646.983C187.795 646.983 189.027 647.633 189.681 648.933V642.674H191.009V656.213H189.854L189.72 654.375C189.066 655.768 187.756 656.437 186.198 656.437ZM186.429 655.266C188.468 655.266 189.662 653.781 189.662 651.701C189.662 649.638 188.468 648.134 186.429 648.134C184.408 648.134 183.234 649.638 183.234 651.701C183.234 653.781 184.408 655.266 186.429 655.266ZM205.025 656.419C201.176 656.419 198.56 653.651 198.56 649.565C198.56 645.478 201.215 642.692 205.102 642.692C208.066 642.692 210.395 644.42 210.954 647.056H209.471C208.894 645.144 207.2 643.973 205.044 643.973C202.024 643.973 200.002 646.202 200.002 649.565C200.002 652.907 202.024 655.136 205.044 655.136C207.22 655.136 208.951 654.003 209.549 652.221H211.03C210.395 654.728 207.99 656.419 205.025 656.419ZM218.006 647.113V648.264H217.274C215.562 648.264 214.466 649.379 214.466 651.088V656.213H213.138V647.224H214.388L214.485 648.616C214.85 647.651 215.832 647.02 217.14 647.02C217.429 647.02 217.68 647.038 218.006 647.113ZM220.427 644.754C219.887 644.754 219.445 644.327 219.445 643.807C219.445 643.287 219.887 642.84 220.427 642.84C220.966 642.84 221.428 643.287 221.428 643.807C221.428 644.327 220.966 644.754 220.427 644.754ZM219.772 656.213V647.224H221.1V656.213H219.772ZM225.197 656.213H223.869V647.224H225.024L225.177 648.505C225.639 647.558 226.679 646.983 227.987 646.983C229.451 646.983 230.547 647.726 230.99 648.895C231.413 647.726 232.548 646.983 234.05 646.983C236.071 646.983 237.398 648.246 237.398 650.326V656.213H236.109V650.586C236.109 649.045 235.223 648.134 233.8 648.134C232.24 648.134 231.316 649.267 231.316 650.661V656.213H230.008V650.568C230.008 649.045 229.103 648.153 227.698 648.153C226.14 648.153 225.197 649.267 225.197 650.641V656.213ZM240.725 644.754C240.185 644.754 239.743 644.327 239.743 643.807C239.743 643.287 240.185 642.84 240.725 642.84C241.263 642.84 241.725 643.287 241.725 643.807C241.725 644.327 241.263 644.754 240.725 644.754ZM240.069 656.213V647.224H241.398V656.213H240.069ZM245.495 656.213H244.167V647.224H245.322L245.514 648.784C246.129 647.633 247.362 646.983 248.709 646.983C251.269 646.983 252.327 648.45 252.327 650.716V656.213H250.999V650.995C250.999 648.895 250.017 648.153 248.478 648.153C246.572 648.153 245.495 649.49 245.495 651.515V656.213ZM257.647 656.437C255.666 656.437 254.492 655.359 254.492 653.781C254.492 652.128 255.8 651.088 257.975 650.92L261.054 650.679V650.382C261.054 648.618 259.957 648.06 258.591 648.06C256.974 648.06 256.011 648.766 256.011 649.973H254.8C254.8 648.153 256.339 646.983 258.629 646.983C260.784 646.983 262.363 648.023 262.363 650.4V656.213H261.246L261.073 654.635C260.496 655.768 259.225 656.437 257.647 656.437ZM257.956 655.397C259.918 655.397 261.054 654.078 261.054 652.128V651.645L258.302 651.849C256.551 651.997 255.839 652.741 255.839 653.743C255.839 654.839 256.685 655.397 257.956 655.397ZM266.413 656.213H265.086V642.674H266.413V656.213ZM276.249 656.213H274.863V642.915H280.002C282.793 642.915 284.486 644.4 284.486 646.759C284.486 648.673 283.447 650.01 281.677 650.475L284.621 656.213H283.081L280.272 650.697H276.249V656.213ZM276.249 644.122V649.49H280.041C281.945 649.49 283.063 648.487 283.063 646.797C283.063 645.069 281.889 644.122 280.002 644.122H276.249ZM290.115 656.437C287.382 656.437 285.554 654.542 285.554 651.719C285.554 648.915 287.363 646.983 290.02 646.983C292.541 646.983 294.253 648.709 294.253 651.254V651.886H286.844C286.94 654.078 288.133 655.341 290.135 655.341C291.656 655.341 292.636 654.709 292.983 653.52H294.253C293.752 655.415 292.31 656.437 290.115 656.437ZM290.02 648.078C288.268 648.078 287.113 649.193 286.882 650.957H292.925C292.925 649.229 291.771 648.078 290.02 648.078ZM295.721 651.737C295.721 648.915 297.512 646.983 300.226 646.983C302.38 646.983 303.958 648.189 304.325 650.048H302.997C302.65 648.802 301.534 648.116 300.245 648.116C298.359 648.116 297.031 649.508 297.031 651.719C297.031 653.854 298.262 655.286 300.148 655.286C301.534 655.286 302.65 654.542 303.016 653.39H304.363C303.921 655.229 302.265 656.437 300.148 656.437C297.512 656.437 295.721 654.56 295.721 651.737ZM305.721 651.719C305.721 648.97 307.722 646.983 310.455 646.983C313.189 646.983 315.19 648.97 315.19 651.719C315.19 654.449 313.189 656.437 310.455 656.437C307.722 656.437 305.721 654.449 305.721 651.719ZM307.068 651.701C307.068 653.818 308.453 655.286 310.455 655.286C312.438 655.286 313.843 653.818 313.843 651.701C313.843 649.62 312.438 648.134 310.455 648.134C308.453 648.134 307.068 649.62 307.068 651.701ZM322.183 647.113V648.264H321.451C319.739 648.264 318.641 649.379 318.641 651.088V656.213H317.314V647.224H318.565L318.661 648.616C319.027 647.651 320.008 647.02 321.317 647.02C321.605 647.02 321.855 647.038 322.183 647.113ZM327.247 656.437C324.532 656.437 322.935 654.43 322.935 651.737C322.935 649.025 324.532 646.983 327.304 646.983C328.844 646.983 330.075 647.633 330.729 648.933V642.674H332.058V656.213H330.904L330.768 654.375C330.114 655.768 328.806 656.437 327.247 656.437ZM327.478 655.266C329.518 655.266 330.71 653.781 330.71 651.701C330.71 649.638 329.518 648.134 327.478 648.134C325.456 648.134 324.283 649.638 324.283 651.701C324.283 653.781 325.456 655.266 327.478 655.266Z" fill="black"/>
<path d="M468.16 992.28H59.2005C53.8861 992.28 49.578 996.438 49.578 1001.57V1057.29C49.578 1062.42 53.8861 1066.57 59.2005 1066.57H468.16C473.474 1066.57 477.782 1062.42 477.782 1057.29V1001.57C477.782 996.438 473.474 992.28 468.16 992.28Z" fill="#3B82F6"/>
<path d="M223.761 1036.39H221.336V1022.82H223.78L230.381 1032.44V1022.82H232.806V1036.39H230.381L223.761 1026.77V1036.39ZM239.827 1036.63C236.998 1036.63 235.015 1034.65 235.015 1031.8C235.015 1028.93 236.96 1026.94 239.751 1026.94C242.598 1026.94 244.407 1028.78 244.407 1031.64V1032.32L237.249 1032.34C237.422 1033.96 238.307 1034.78 239.865 1034.78C241.154 1034.78 242.002 1034.29 242.272 1033.42H244.446C244.042 1035.43 242.309 1036.63 239.827 1036.63ZM239.77 1028.8C238.384 1028.8 237.536 1029.52 237.306 1030.9H242.078C242.078 1029.63 241.174 1028.8 239.77 1028.8ZM247.509 1036.39H244.834L248.106 1031.9L244.834 1027.22H247.567L249.665 1030.34L251.685 1027.22H254.323L251.089 1031.86L254.226 1036.39H251.532L249.511 1033.37L247.509 1036.39ZM259.331 1036.39H256.983V1029.11H255.155V1027.22H256.983V1024.36H259.331V1027.22H261.179V1029.11H259.331V1036.39ZM267.363 1026.6C267.363 1024.23 269.403 1022.57 272.367 1022.57C275.215 1022.57 277.024 1024.1 277.102 1026.55H274.637C274.581 1025.38 273.714 1024.69 272.328 1024.69C270.808 1024.69 269.826 1025.4 269.826 1026.53C269.826 1027.5 270.365 1028.03 271.54 1028.29L273.752 1028.76C276.159 1029.26 277.333 1030.45 277.333 1032.47C277.333 1035 275.292 1036.63 272.194 1036.63C269.191 1036.63 267.229 1035.09 267.171 1032.66H269.634C269.653 1033.81 270.616 1034.5 272.194 1034.5C273.83 1034.5 274.868 1033.81 274.868 1032.68C274.868 1031.77 274.387 1031.23 273.232 1030.99L271 1030.5C268.615 1030 267.363 1028.68 267.363 1026.6ZM282.446 1036.39H280.099V1029.11H278.271V1027.22H280.099V1024.36H282.446V1027.22H284.294V1029.11H282.446V1036.39ZM289.914 1036.63C287.084 1036.63 285.103 1034.65 285.103 1031.8C285.103 1028.93 287.046 1026.94 289.837 1026.94C292.685 1026.94 294.494 1028.78 294.494 1031.64V1032.32L287.335 1032.34C287.508 1033.96 288.393 1034.78 289.953 1034.78C291.242 1034.78 292.088 1034.29 292.358 1033.42H294.533C294.128 1035.43 292.396 1036.63 289.914 1036.63ZM289.856 1028.8C288.47 1028.8 287.624 1029.52 287.393 1030.9H292.165C292.165 1029.63 291.261 1028.8 289.856 1028.8ZM296.373 1040.65V1027.22H298.547L298.702 1028.61C299.279 1027.55 300.53 1026.94 301.973 1026.94C304.649 1026.94 306.419 1028.81 306.419 1031.69C306.419 1034.55 304.802 1036.63 301.973 1036.63C300.549 1036.63 299.317 1036.1 298.721 1035.17V1040.65H296.373ZM298.74 1031.8C298.74 1033.46 299.798 1034.59 301.415 1034.59C303.071 1034.59 304.051 1033.44 304.051 1031.8C304.051 1030.17 303.071 1029 301.415 1029C299.798 1029 298.74 1030.15 298.74 1031.8Z" fill="white"/>
<path d="M472.971 714.256H53.1863C48.2041 714.256 44.1652 718.154 44.1652 722.963V789.13C44.1652 793.939 48.2041 797.837 53.1863 797.837H472.971C477.953 797.837 481.992 793.939 481.992 789.13V722.963C481.992 718.154 477.953 714.256 472.971 714.256Z" stroke="#3B82F6"/>
<path d="M109.719 727.606H60.4033C57.746 727.606 55.592 729.685 55.592 732.249V779.844C55.592 782.408 57.746 784.487 60.4033 784.487H109.719C112.376 784.487 114.53 782.408 114.53 779.844V732.249C114.53 729.685 112.376 727.606 109.719 727.606Z" fill="#BFDBFE"/>
<path d="M97.6907 746.18H73.6343C72.3232 746.226 71.2768 747.235 71.2287 748.501V764.754C71.2768 766.018 72.3232 767.029 73.6343 767.075H97.6907C99.0018 767.029 100.048 766.018 100.096 764.754V748.501C100.048 747.235 99.0018 746.226 97.6907 746.18ZM97.6907 764.754H73.6343V748.501H97.6907V764.754ZM88.0682 762.432V760.98C88.0682 759.054 84.0507 758.078 82.0541 758.078C80.0573 758.078 76.0399 759.054 76.0399 760.98V762.432H88.0682ZM82.0541 750.823C81.2566 750.823 80.4917 751.129 79.9276 751.673C79.3638 752.217 79.0469 752.956 79.0469 753.725C79.0469 754.106 79.1249 754.483 79.2759 754.836C79.4269 755.187 79.6486 755.509 79.9276 755.777C80.4917 756.322 81.2566 756.628 82.0541 756.628C82.4489 756.628 82.84 756.551 83.2047 756.407C83.5696 756.261 83.9011 756.047 84.1804 755.777C84.4595 755.509 84.6812 755.187 84.8322 754.836C84.9832 754.483 85.0611 754.106 85.0611 753.725C85.0611 753.345 84.9832 752.968 84.8322 752.614C84.6812 752.263 84.4595 751.942 84.1804 751.673C83.9011 751.404 83.5696 751.19 83.2047 751.044C82.84 750.899 82.4489 750.823 82.0541 750.823ZM88.0682 750.823V751.984H95.285V750.823H88.0682ZM88.0682 753.145V754.306H95.285V753.145H88.0682ZM88.0682 755.466V756.628H92.8794V755.466H88.0682Z" fill="#3B82F6"/>
<path d="M138.664 763.217C134.815 763.217 132.197 760.449 132.197 756.363C132.197 752.276 134.854 749.49 138.741 749.49C141.705 749.49 144.033 751.218 144.591 753.856H143.11C142.532 751.942 140.838 750.771 138.683 750.771C135.661 750.771 133.641 753.001 133.641 756.363C133.641 759.705 135.661 761.935 138.683 761.935C140.857 761.935 142.59 760.802 143.186 759.019H144.669C144.033 761.526 141.627 763.217 138.664 763.217ZM149.263 763.235C147.281 763.235 146.107 762.157 146.107 760.579C146.107 758.926 147.416 757.886 149.59 757.718L152.669 757.477V757.18C152.669 755.416 151.573 754.858 150.206 754.858C148.59 754.858 147.627 755.564 147.627 756.771H146.414C146.414 754.951 147.955 753.781 150.245 753.781C152.4 753.781 153.978 754.821 153.978 757.198V763.011H152.862L152.689 761.433C152.111 762.566 150.841 763.235 149.263 763.235ZM149.572 762.195C151.534 762.195 152.669 760.876 152.669 758.926V758.443L149.917 758.647C148.166 758.795 147.454 759.539 147.454 760.541C147.454 761.637 148.301 762.195 149.572 762.195ZM156.642 766.931V754.022H157.797L157.932 755.843C158.586 754.449 159.895 753.781 161.453 753.781C164.147 753.781 165.764 755.768 165.764 758.479C165.764 761.192 164.205 763.235 161.453 763.235C159.875 763.235 158.625 762.584 157.97 761.285V766.931H156.642ZM157.989 758.517C157.989 760.579 159.183 762.084 161.222 762.084C163.243 762.084 164.417 760.579 164.417 758.517C164.417 756.437 163.243 754.951 161.222 754.951C159.183 754.951 157.989 756.437 157.989 758.517ZM169.924 763.011H168.616V755.1H166.749V754.022H168.616V751.18H169.924V754.022H171.791V755.1H169.924V763.011ZM180.064 754.022H181.392V763.011H180.237L180.064 761.489C179.544 762.529 178.255 763.235 176.792 763.235C174.598 763.235 173.405 761.785 173.405 759.594V754.004H174.752V759.185C174.752 761.322 175.734 762.084 177.215 762.084C179.005 762.084 180.064 760.931 180.064 758.795V754.022ZM189.026 753.911V755.062H188.294C186.582 755.062 185.484 756.177 185.484 757.886V763.011H184.157V754.022H185.408L185.504 755.416C185.87 754.449 186.851 753.818 188.16 753.818C188.449 753.818 188.698 753.836 189.026 753.911ZM194.342 763.235C191.608 763.235 189.779 761.34 189.779 758.517C189.779 755.713 191.59 753.781 194.245 753.781C196.766 753.781 198.478 755.509 198.478 758.052V758.685H191.07C191.165 760.876 192.359 762.139 194.36 762.139C195.881 762.139 196.863 761.508 197.209 760.318H198.478C197.979 762.213 196.535 763.235 194.342 763.235ZM194.245 754.876C192.494 754.876 191.339 755.991 191.108 757.755H197.151C197.151 756.029 195.996 754.876 194.245 754.876ZM207.614 749.713V763.011H206.229V749.713H207.614ZM215.16 763.011H210.964V749.713H215.121C219.278 749.713 222.05 752.388 222.05 756.363C222.05 760.338 219.298 763.011 215.16 763.011ZM215.063 750.939H212.35V761.785H215.102C218.469 761.785 220.625 759.669 220.625 756.363C220.625 753.037 218.469 750.939 215.063 750.939ZM233.258 763.235C230.545 763.235 228.947 761.229 228.947 758.536C228.947 755.823 230.545 753.781 233.316 753.781C234.855 753.781 236.088 754.431 236.742 755.731V749.472H238.069V763.011H236.915L236.78 761.173C236.126 762.566 234.817 763.235 233.258 763.235ZM233.489 762.064C235.529 762.064 236.722 760.579 236.722 758.499C236.722 756.436 235.529 754.932 233.489 754.932C231.468 754.932 230.294 756.436 230.294 758.499C230.294 760.579 231.468 762.064 233.489 762.064ZM240.185 758.517C240.185 755.768 242.187 753.781 244.919 753.781C247.652 753.781 249.654 755.768 249.654 758.517C249.654 761.247 247.652 763.235 244.919 763.235C242.187 763.235 240.185 761.247 240.185 758.517ZM241.532 758.499C241.532 760.616 242.918 762.084 244.919 762.084C246.902 762.084 248.307 760.616 248.307 758.499C248.307 756.418 246.902 754.932 244.919 754.932C242.918 754.932 241.532 756.418 241.532 758.499ZM251.124 758.536C251.124 755.713 252.914 753.781 255.627 753.781C257.783 753.781 259.361 754.989 259.726 756.846H258.398C258.053 755.602 256.935 754.914 255.646 754.914C253.76 754.914 252.432 756.307 252.432 758.517C252.432 760.652 253.665 762.084 255.551 762.084C256.935 762.084 258.053 761.34 258.418 760.189H259.765C259.322 762.028 257.667 763.235 255.551 763.235C252.914 763.235 251.124 761.358 251.124 758.536ZM268.32 754.022H269.648V763.011H268.493L268.32 761.489C267.8 762.529 266.511 763.235 265.048 763.235C262.855 763.235 261.661 761.785 261.661 759.594V754.004H263.008V759.185C263.008 761.322 263.99 762.084 265.473 762.084C267.262 762.084 268.32 760.931 268.32 758.795V754.022ZM273.742 763.011H272.414V754.022H273.569L273.723 755.303C274.185 754.356 275.223 753.781 276.533 753.781C277.995 753.781 279.091 754.524 279.534 755.694C279.958 754.524 281.094 753.781 282.594 753.781C284.615 753.781 285.943 755.044 285.943 757.124V763.011H284.654V757.384C284.654 755.843 283.768 754.932 282.344 754.932C280.785 754.932 279.862 756.065 279.862 757.459V763.011H278.553V757.366C278.553 755.843 277.649 754.951 276.244 754.951C274.685 754.951 273.742 756.065 273.742 757.439V763.011ZM292.522 763.235C289.789 763.235 287.96 761.34 287.96 758.517C287.96 755.713 289.769 753.781 292.425 753.781C294.946 753.781 296.659 755.509 296.659 758.052V758.685H289.249C289.346 760.876 290.54 762.139 292.541 762.139C294.061 762.139 295.043 761.508 295.388 760.318H296.659C296.159 762.213 294.715 763.235 292.522 763.235ZM292.425 754.876C290.674 754.876 289.519 755.991 289.288 757.755H295.332C295.332 756.029 294.177 754.876 292.425 754.876ZM300.109 763.011H298.782V754.022H299.937L300.129 755.582C300.746 754.431 301.976 753.781 303.323 753.781C305.883 753.781 306.943 755.248 306.943 757.514V763.011H305.614V757.793C305.614 755.694 304.633 754.951 303.092 754.951C301.188 754.951 300.109 756.288 300.109 758.313V763.011ZM311.726 763.011H310.417V755.1H308.55V754.022H310.417V751.18H311.726V754.022H313.592V755.1H311.726V763.011Z" fill="black"/>
<path d="M472.971 821.054H53.1864C48.2043 821.054 44.1653 824.953 44.1653 829.761V895.93C44.1653 900.738 48.2043 904.635 53.1864 904.635H472.971C477.953 904.635 481.993 900.738 481.993 895.93V829.761C481.993 824.953 477.953 821.054 472.971 821.054Z" stroke="#3B82F6"/>
<path d="M109.719 834.404H60.4032C57.746 834.404 55.5919 836.483 55.5919 839.047V886.643C55.5919 889.207 57.746 891.286 60.4032 891.286H109.719C112.376 891.286 114.53 889.207 114.53 886.643V839.047C114.53 836.483 112.376 834.404 109.719 834.404Z" fill="#BFDBFE"/>
<path d="M94.0824 871.552H77.2429V855.299H94.0824M94.0824 852.978H77.2429C76.605 852.978 75.993 853.223 75.5418 853.658C75.0908 854.094 74.8372 854.684 74.8372 855.299V871.552C74.8372 872.167 75.0908 872.758 75.5418 873.193C75.993 873.628 76.605 873.873 77.2429 873.873H94.0824C94.7204 873.873 95.3323 873.628 95.7834 873.193C96.2346 872.758 96.488 872.167 96.488 871.552V855.299C96.488 854.012 95.4055 852.978 94.0824 852.978ZM91.0753 868.359C91.0753 866.618 87.4669 865.747 85.6626 865.747C83.8585 865.747 80.2499 866.618 80.2499 868.359V869.23H91.0753M85.6626 863.716C86.3804 863.716 87.0688 863.441 87.5763 862.951C88.0838 862.462 88.3691 861.797 88.3691 861.104C88.3691 860.411 88.0838 859.746 87.5763 859.257C87.0688 858.767 86.3804 858.492 85.6626 858.492C84.945 858.492 84.2565 858.767 83.749 859.257C83.2415 859.746 82.9564 860.411 82.9564 861.104C82.9564 861.797 83.2415 862.462 83.749 862.951C84.2565 863.441 84.945 863.716 85.6626 863.716Z" fill="#3B82F6"/>
<path d="M138.664 870.015C134.815 870.015 132.197 867.247 132.197 863.161C132.197 859.075 134.854 856.289 138.741 856.289C141.705 856.289 144.033 858.016 144.591 860.654H143.11C142.532 858.74 140.838 857.571 138.683 857.571C135.661 857.571 133.641 859.799 133.641 863.161C133.641 866.505 135.661 868.733 138.683 868.733C140.857 868.733 142.59 867.6 143.186 865.817H144.669C144.033 868.324 141.627 870.015 138.664 870.015ZM149.263 870.033C147.281 870.033 146.107 868.957 146.107 867.377C146.107 865.724 147.416 864.684 149.59 864.517L152.669 864.276V863.978C152.669 862.214 151.573 861.656 150.206 861.656C148.59 861.656 147.627 862.362 147.627 863.57H146.414C146.414 861.749 147.955 860.579 150.245 860.579C152.4 860.579 153.978 861.619 153.978 863.997V869.811H152.862L152.689 868.231C152.111 869.364 150.841 870.033 149.263 870.033ZM149.572 868.993C151.534 868.993 152.669 867.674 152.669 865.724V865.241L149.917 865.445C148.166 865.594 147.454 866.337 147.454 867.34C147.454 868.437 148.301 868.993 149.572 868.993ZM156.642 873.73V860.82H157.797L157.932 862.641C158.586 861.247 159.895 860.579 161.453 860.579C164.147 860.579 165.764 862.566 165.764 865.279C165.764 867.99 164.205 870.033 161.453 870.033C159.875 870.033 158.625 869.384 157.97 868.083V873.73H156.642ZM157.989 865.316C157.989 867.377 159.183 868.882 161.222 868.882C163.243 868.882 164.417 867.377 164.417 865.316C164.417 863.236 163.243 861.749 161.222 861.749C159.183 861.749 157.989 863.236 157.989 865.316ZM169.924 869.811H168.616V861.898H166.749V860.82H168.616V857.979H169.924V860.82H171.791V861.898H169.924V869.811ZM180.064 860.82H181.392V869.811H180.237L180.064 868.287C179.544 869.327 178.255 870.033 176.792 870.033C174.598 870.033 173.405 868.585 173.405 866.392V860.802H174.752V865.985C174.752 868.12 175.734 868.882 177.215 868.882C179.005 868.882 180.064 867.731 180.064 865.594V860.82ZM189.026 860.709V861.86H188.294C186.582 861.86 185.484 862.975 185.484 864.684V869.811H184.157V860.82H185.408L185.504 862.214C185.87 861.249 186.851 860.616 188.16 860.616C188.448 860.616 188.698 860.636 189.026 860.709ZM194.342 870.033C191.608 870.033 189.779 868.138 189.779 865.316C189.779 862.511 191.59 860.579 194.245 860.579C196.766 860.579 198.478 862.307 198.478 864.852V865.483H191.07C191.165 867.674 192.359 868.937 194.36 868.937C195.881 868.937 196.863 868.306 197.209 867.118H198.478C197.979 869.012 196.535 870.033 194.342 870.033ZM194.245 861.676C192.494 861.676 191.339 862.789 191.108 864.554H197.151C197.151 862.827 195.996 861.676 194.245 861.676ZM207.614 856.511V869.811H206.229V856.511H207.614ZM215.16 869.811H210.964V856.511H215.121C219.278 856.511 222.05 859.186 222.05 863.161C222.05 867.136 219.298 869.811 215.16 869.811ZM215.063 857.737H212.35V868.585H215.102C218.469 868.585 220.625 866.467 220.625 863.161C220.625 859.837 218.469 857.737 215.063 857.737ZM228.813 867.284H230.083C230.083 868.324 230.892 868.975 232.2 868.975C233.644 868.975 234.49 868.38 234.49 867.415C234.49 866.671 234.106 866.244 233.008 865.985L231.41 865.594C229.794 865.204 229.005 864.387 229.005 863.161C229.005 861.583 230.372 860.579 232.373 860.579C234.337 860.579 235.606 861.619 235.664 863.291H234.374C234.337 862.251 233.586 861.638 232.334 861.638C231.026 861.638 230.294 862.176 230.294 863.143C230.294 863.83 230.795 864.312 231.816 864.554L233.413 864.945C235.03 865.334 235.76 866.058 235.76 867.359C235.76 868.975 234.337 870.033 232.219 870.033C230.121 870.033 228.813 868.957 228.813 867.284ZM241.852 870.033C239.12 870.033 237.291 868.138 237.291 865.316C237.291 862.511 239.1 860.579 241.757 860.579C244.278 860.579 245.99 862.307 245.99 864.852V865.483H238.58C238.677 867.674 239.871 868.937 241.872 868.937C243.392 868.937 244.373 868.306 244.721 867.118H245.99C245.49 869.012 244.047 870.033 241.852 870.033ZM241.757 861.676C240.005 861.676 238.85 862.789 238.619 864.554H244.662C244.662 862.827 243.508 861.676 241.757 861.676ZM249.498 869.811H248.171V856.27H249.498V869.811ZM258.462 869.811V861.898H254.036V869.811H252.708V861.898H251.284V860.82H252.708V859.075C252.708 857.051 253.844 856.27 255.23 856.27C255.556 856.27 255.96 856.289 256.268 856.345V857.458H255.461C254.343 857.458 254.036 858.016 254.036 859.075V860.82H259.791V869.811H258.462ZM259.117 858.257C258.578 858.257 258.193 857.886 258.193 857.366C258.193 856.846 258.578 856.456 259.117 856.456C259.636 856.456 260.041 856.846 260.041 857.366C260.041 857.886 259.636 858.257 259.117 858.257ZM266.416 870.033C263.683 870.033 261.855 868.138 261.855 865.316C261.855 862.511 263.664 860.579 266.321 860.579C268.842 860.579 270.554 862.307 270.554 864.852V865.483H263.145C263.241 867.674 264.434 868.937 266.435 868.937C267.957 868.937 268.937 868.306 269.284 867.118H270.554C270.054 869.012 268.611 870.033 266.416 870.033ZM266.321 861.676C264.568 861.676 263.415 862.789 263.184 864.554H269.226C269.226 862.827 268.071 861.676 266.321 861.676Z" fill="black"/>
</g>
</g>
<path d="M258.309 55.082C266.099 55.082 272.414 48.9365 272.414 41.3556C272.414 33.7746 266.099 27.6291 258.309 27.6291C250.52 27.6291 244.205 33.7746 244.205 41.3556C244.205 48.9365 250.52 55.082 258.309 55.082Z" fill="#121515"/>
<path fill-rule="evenodd" clip-rule="evenodd" d="M258.309 51.015C263.792 51.015 268.235 46.6903 268.235 41.3556C268.235 36.0208 263.792 31.6962 258.309 31.6962C252.828 31.6962 248.385 36.0208 248.385 41.3556C248.385 46.6903 252.828 51.015 258.309 51.015Z" fill="#262C2D"/>
<path fill-rule="evenodd" clip-rule="evenodd" d="M258.309 47.3926C261.735 47.3926 264.513 44.6898 264.513 41.3556C264.513 38.0214 261.735 35.3185 258.309 35.3185C254.884 35.3185 252.106 38.0214 252.106 41.3556C252.106 44.6898 254.884 47.3926 258.309 47.3926Z" fill="#121515"/>
<path fill-rule="evenodd" clip-rule="evenodd" d="M258.309 41.1229C258.995 41.1229 259.549 40.5823 259.549 39.9154C259.549 39.2486 258.995 38.708 258.309 38.708C257.624 38.708 257.068 39.2486 257.068 39.9154C257.068 40.5823 257.624 41.1229 258.309 41.1229Z" fill="#636F73"/>
</g>
<defs>
<clipPath id="clip0_44_1030">
<rect width="529" height="1124" fill="white"/>
</clipPath>
</defs>
</svg>
