<svg width="573" height="789" viewBox="0 0 573 789" fill="none" xmlns="http://www.w3.org/2000/svg">
<g clip-path="url(#clip0_52_2)">
<rect width="573" height="912" rx="50" fill="#3B82F6"/>
<g clip-path="url(#clip1_52_2)">
<path d="M82 154.724C82 115.221 82 95.4695 93.5055 82.3697C95.1393 80.5095 96.9208 78.7771 98.8337 77.1883C112.305 66 132.616 66 173.239 66H395.805C436.428 66 456.739 66 470.21 77.1883C472.123 78.7771 473.905 80.5095 475.538 82.3697C487.044 95.4695 487.044 115.221 487.044 154.724V848.276C487.044 887.779 487.044 907.53 475.538 920.63C473.905 922.49 472.123 924.223 470.21 925.812C456.739 937 436.428 937 395.805 937H173.239C132.616 937 112.305 937 98.8337 925.812C96.9208 924.223 95.1393 922.49 93.5055 920.63C82 907.53 82 887.779 82 848.276V154.724Z" fill="#3A4245"/>
<path fill-rule="evenodd" clip-rule="evenodd" d="M93.2763 86.9295C84.0876 98.264 84.0876 114.868 84.0876 148.075V854.925C84.0876 888.132 84.0876 904.736 93.2763 916.07C95.3599 918.641 97.7479 920.963 100.391 922.989C112.047 931.924 129.121 931.924 163.27 931.924H405.774C439.923 931.924 456.997 931.924 468.653 922.989C471.296 920.963 473.684 918.641 475.767 916.07C484.956 904.736 484.956 888.132 484.956 854.925V148.075C484.956 114.868 484.956 98.264 475.767 86.9295C473.684 84.3594 471.296 82.0372 468.653 80.0111C456.997 71.0757 439.923 71.0757 405.774 71.0757H163.27C129.121 71.0757 112.047 71.0757 100.391 80.0111C97.7479 82.0372 95.3599 84.3594 93.2763 86.9295ZM486.256 224.629H487.923C489.765 224.629 491.259 225.565 491.259 226.72V330.561C491.259 331.716 489.765 332.653 487.923 332.653H486.256V224.629ZM486.256 392.017H487.923C489.765 392.017 491.259 392.952 491.259 394.105V446.374C491.259 447.527 489.765 448.461 487.923 448.461H486.256V392.017Z" fill="#121515"/>
<mask id="mask0_52_2" style="mask-type:alpha" maskUnits="userSpaceOnUse" x="91" y="81" width="387" height="833">
<path d="M91.0056 117C91.0056 97.433 107.364 81.571 127.542 81.571H440.713C460.892 81.571 477.25 97.433 477.25 117V878.215C477.25 897.781 460.892 913.644 440.713 913.644H127.542C107.364 913.644 91.0056 897.781 91.0056 878.215V117Z" fill="white"/>
</mask>
<g mask="url(#mask0_52_2)">
<mask id="mask1_52_2" style="mask-type:luminance" maskUnits="userSpaceOnUse" x="85" y="82" width="399" height="831">
<path d="M484 82H85V912.028H484V82Z" fill="white"/>
</mask>
<g mask="url(#mask1_52_2)">
<path d="M476.542 82H92.4579C88.339 82 85 85.2105 85 89.1709V904.858C85 908.818 88.339 912.028 92.4579 912.028H476.542C480.661 912.028 484 908.818 484 904.858V89.1709C484 85.2105 480.661 82 476.542 82Z" fill="white"/>
<path d="M115.041 197.63H112.058V181.249H118.561C122.43 181.249 124.69 183.132 124.69 186.359C124.69 188.555 123.618 190.123 121.614 190.908L124.853 197.63H121.59L118.701 191.513H115.041V197.63ZM115.041 183.804V188.98H118.561C120.448 188.98 121.567 188.017 121.567 186.359C121.567 184.723 120.448 183.804 118.561 183.804H115.041ZM131.583 197.922C128.157 197.922 125.757 195.524 125.757 192.095C125.757 188.622 128.111 186.224 131.49 186.224C134.939 186.224 137.13 188.443 137.13 191.894V192.723L128.46 192.745C128.67 194.695 129.742 195.681 131.63 195.681C133.191 195.681 134.217 195.098 134.543 194.045H137.177C136.687 196.465 134.59 197.922 131.583 197.922ZM131.513 188.465C129.835 188.465 128.81 189.339 128.53 190.997H134.31C134.31 189.473 133.215 188.465 131.513 188.465ZM138.753 191.849C138.753 188.622 140.944 186.202 144.23 186.202C145.955 186.202 147.307 186.896 147.982 188.084L148.146 186.56H150.779V197.07C150.779 200.768 148.472 203.076 144.743 203.076C141.433 203.076 139.173 201.261 138.823 198.303H141.667C141.853 199.737 142.995 200.588 144.743 200.588C146.701 200.588 147.959 199.401 147.959 197.563V195.726C147.237 196.756 145.815 197.406 144.16 197.406C140.897 197.406 138.753 195.053 138.753 191.849ZM141.62 191.782C141.62 193.642 142.855 195.031 144.72 195.031C146.677 195.031 147.889 193.709 147.889 191.782C147.889 189.899 146.701 188.599 144.72 188.599C142.832 188.599 141.62 189.966 141.62 191.782ZM155.143 184.342C154.165 184.342 153.395 183.602 153.395 182.684C153.395 181.765 154.165 181.048 155.143 181.048C156.076 181.048 156.845 181.765 156.845 182.684C156.845 183.602 156.076 184.342 155.143 184.342ZM153.722 197.63V186.56H156.565V197.63H153.722ZM158.617 194.269H161.321C161.344 195.233 162.09 195.838 163.395 195.838C164.723 195.838 165.446 195.322 165.446 194.515C165.446 193.955 165.143 193.552 164.117 193.328L162.043 192.857C159.969 192.409 158.967 191.468 158.967 189.698C158.967 187.524 160.878 186.224 163.535 186.224C166.122 186.224 167.87 187.658 167.893 189.81H165.189C165.166 188.868 164.514 188.263 163.418 188.263C162.299 188.263 161.647 188.756 161.647 189.585C161.647 190.213 162.16 190.616 163.139 190.84L165.213 191.311C167.147 191.737 168.126 192.588 168.126 194.291C168.126 196.532 166.145 197.922 163.302 197.922C160.435 197.922 158.617 196.443 158.617 194.269ZM174.206 197.63H171.363V188.846H169.149V186.56H171.363V183.109H174.206V186.56H176.444V188.846H174.206V197.63ZM183.248 197.922C179.822 197.922 177.422 195.524 177.422 192.095C177.422 188.622 179.775 186.224 183.155 186.224C186.604 186.224 188.795 188.443 188.795 191.894V192.723L180.125 192.745C180.335 194.695 181.407 195.681 183.295 195.681C184.856 195.681 185.882 195.098 186.208 194.045H188.842C188.352 196.465 186.255 197.922 183.248 197.922ZM183.178 188.465C181.5 188.465 180.475 189.339 180.195 190.997H185.975C185.975 189.473 184.88 188.465 183.178 188.465ZM198.295 186.515V189.048H197.247C195.196 189.048 193.914 190.101 193.914 192.252V197.63H191.071V186.583H193.751L193.914 188.196C194.403 187.098 195.499 186.359 197.037 186.359C197.433 186.359 197.829 186.403 198.295 186.515Z" fill="black"/>
<path d="M128.816 116.435H114.138L117.846 112.949L116.386 111.58L110.171 117.406L116.386 123.233L117.846 121.863L114.138 118.377H128.816V116.435Z" fill="black"/>
<path d="M114.407 216.941V226.264H119.314V227.21H113.333V216.941H114.407ZM123.58 227.382C121.462 227.382 120.045 225.919 120.045 223.739C120.045 221.574 121.447 220.082 123.506 220.082C125.46 220.082 126.787 221.416 126.787 223.381V223.869H121.045C121.119 225.561 122.044 226.536 123.595 226.536C124.774 226.536 125.534 226.048 125.803 225.131H126.787C126.4 226.593 125.281 227.382 123.58 227.382ZM123.506 220.928C122.148 220.928 121.254 221.789 121.075 223.151H125.758C125.758 221.818 124.863 220.928 123.506 220.928ZM130.016 227.21H129.001V221.101H127.555V220.269H129.001V218.074H130.016V220.269H131.463V221.101H130.016V227.21ZM133.726 217.644L133.443 220.498H132.771L132.473 217.644C132.413 217.142 132.786 216.913 133.115 216.913C133.428 216.913 133.786 217.142 133.726 217.644ZM134.58 225.26H135.564C135.564 226.063 136.191 226.565 137.205 226.565C138.324 226.565 138.98 226.106 138.98 225.36C138.98 224.786 138.682 224.457 137.832 224.256L136.594 223.955C135.341 223.653 134.729 223.022 134.729 222.076C134.729 220.857 135.788 220.082 137.339 220.082C138.861 220.082 139.845 220.885 139.89 222.176H138.891C138.861 221.373 138.279 220.9 137.31 220.9C136.295 220.9 135.729 221.316 135.729 222.061C135.729 222.592 136.116 222.965 136.907 223.151L138.145 223.453C139.398 223.754 139.965 224.313 139.965 225.317C139.965 226.565 138.861 227.382 137.22 227.382C135.594 227.382 134.58 226.55 134.58 225.26ZM145.304 223.539C145.304 221.646 146.571 220.082 148.69 220.082C149.942 220.082 150.897 220.642 151.359 221.66L151.464 220.269H152.359V226.995C152.359 229.06 150.987 230.408 148.869 230.408C147.019 230.408 145.721 229.404 145.438 227.726H146.467C146.691 228.845 147.586 229.505 148.883 229.505C150.36 229.505 151.345 228.544 151.345 227.095V225.446C150.852 226.421 149.853 226.995 148.615 226.995C146.557 226.995 145.304 225.432 145.304 223.539ZM146.333 223.524C146.333 224.944 147.243 226.106 148.764 226.106C150.33 226.106 151.255 225.016 151.255 223.524C151.255 222.047 150.36 220.957 148.779 220.957C147.228 220.957 146.333 222.119 146.333 223.524ZM157.534 227.382C155.416 227.382 153.999 225.919 153.999 223.739C153.999 221.574 155.401 220.082 157.46 220.082C159.414 220.082 160.741 221.416 160.741 223.381V223.869H154.999C155.073 225.561 155.998 226.536 157.549 226.536C158.728 226.536 159.488 226.048 159.757 225.131H160.741C160.354 226.593 159.235 227.382 157.534 227.382ZM157.46 220.928C156.103 220.928 155.208 221.789 155.029 223.151H159.712C159.712 221.818 158.817 220.928 157.46 220.928ZM163.97 227.21H162.955V221.101H161.509V220.269H162.955V218.074H163.97V220.269H165.417V221.101H163.97V227.21ZM170.282 225.26H171.266C171.266 226.063 171.893 226.565 172.907 226.565C174.026 226.565 174.682 226.106 174.682 225.36C174.682 224.786 174.384 224.457 173.534 224.256L172.296 223.955C171.043 223.653 170.431 223.022 170.431 222.076C170.431 220.857 171.49 220.082 173.041 220.082C174.563 220.082 175.547 220.885 175.592 222.176H174.593C174.563 221.373 173.981 220.9 173.012 220.9C171.997 220.9 171.431 221.316 171.431 222.061C171.431 222.592 171.818 222.965 172.609 223.151L173.847 223.453C175.1 223.754 175.667 224.313 175.667 225.317C175.667 226.565 174.563 227.382 172.922 227.382C171.296 227.382 170.282 226.55 170.282 225.26ZM179.017 227.21H178.002V221.101H176.556V220.269H178.002V218.074H179.017V220.269H180.464V221.101H179.017V227.21ZM183.761 227.382C182.225 227.382 181.315 226.55 181.315 225.331C181.315 224.055 182.329 223.252 184.014 223.123L186.401 222.936V222.707C186.401 221.344 185.551 220.914 184.492 220.914C183.239 220.914 182.493 221.459 182.493 222.391H181.553C181.553 220.986 182.747 220.082 184.522 220.082C186.192 220.082 187.415 220.885 187.415 222.721V227.21H186.55L186.416 225.991C185.968 226.866 184.984 227.382 183.761 227.382ZM184 226.579C185.521 226.579 186.401 225.561 186.401 224.055V223.682L184.268 223.84C182.911 223.955 182.359 224.528 182.359 225.303C182.359 226.149 183.015 226.579 184 226.579ZM193.254 220.183V221.072H192.687C191.36 221.072 190.509 221.932 190.509 223.252V227.21H189.48V220.269H190.45L190.524 221.344C190.808 220.599 191.568 220.111 192.583 220.111C192.806 220.111 193 220.125 193.254 220.183ZM196.569 227.21H195.555V221.101H194.108V220.269H195.555V218.074H196.569V220.269H198.016V221.101H196.569V227.21ZM202.312 227.382C200.194 227.382 198.777 225.919 198.777 223.739C198.777 221.574 200.178 220.082 202.237 220.082C204.191 220.082 205.519 221.416 205.519 223.381V223.869H199.776C199.85 225.561 200.775 226.536 202.327 226.536C203.505 226.536 204.266 226.048 204.534 225.131H205.519C205.131 226.593 204.012 227.382 202.312 227.382ZM202.237 220.928C200.88 220.928 199.985 221.789 199.806 223.151H204.489C204.489 221.818 203.594 220.928 202.237 220.928ZM209.998 227.382C207.895 227.382 206.657 225.833 206.657 223.754C206.657 221.66 207.895 220.082 210.043 220.082C211.236 220.082 212.191 220.584 212.698 221.588V216.755H213.727V227.21H212.832L212.728 225.79C212.22 226.866 211.206 227.382 209.998 227.382ZM210.177 226.479C211.758 226.479 212.683 225.331 212.683 223.725C212.683 222.133 211.758 220.971 210.177 220.971C208.611 220.971 207.701 222.133 207.701 223.725C207.701 225.331 208.611 226.479 210.177 226.479ZM219.504 223.739C219.504 221.617 221.055 220.082 223.173 220.082C225.291 220.082 226.843 221.617 226.843 223.739C226.843 225.848 225.291 227.382 223.173 227.382C221.055 227.382 219.504 225.848 219.504 223.739ZM220.548 223.725C220.548 225.36 221.622 226.493 223.173 226.493C224.71 226.493 225.799 225.36 225.799 223.725C225.799 222.119 224.71 220.971 223.173 220.971C221.622 220.971 220.548 222.119 220.548 223.725ZM229.518 227.21H228.489V220.269H229.384L229.533 221.473C230.01 220.584 230.965 220.082 232.009 220.082C233.993 220.082 234.813 221.215 234.813 222.965V227.21H233.784V223.18C233.784 221.559 233.023 220.986 231.83 220.986C230.353 220.986 229.518 222.018 229.518 223.582V227.21ZM242.657 227.21H241.643V221.101H240.196V220.269H241.643V218.074H242.657V220.269H244.104V221.101H242.657V227.21ZM246.473 227.196H245.444V216.755H246.473V221.473C246.935 220.642 247.815 220.082 249.024 220.082C250.918 220.082 251.768 221.215 251.768 222.965V227.21H250.739V223.18C250.739 221.559 249.948 220.986 248.83 220.986C247.278 220.986 246.473 222.09 246.473 223.424V227.196ZM256.848 227.382C254.73 227.382 253.313 225.919 253.313 223.739C253.313 221.574 254.714 220.082 256.773 220.082C258.727 220.082 260.055 221.416 260.055 223.381V223.869H254.312C254.387 225.561 255.312 226.536 256.863 226.536C258.041 226.536 258.802 226.048 259.07 225.131H260.055C259.667 226.593 258.548 227.382 256.848 227.382ZM256.773 220.928C255.416 220.928 254.521 221.789 254.342 223.151H259.026C259.026 221.818 258.131 220.928 256.773 220.928ZM265.837 230.236V220.269H266.731L266.836 221.674C267.343 220.599 268.357 220.082 269.565 220.082C271.654 220.082 272.907 221.617 272.907 223.711C272.907 225.805 271.698 227.382 269.565 227.382C268.342 227.382 267.373 226.88 266.866 225.876V230.236H265.837ZM266.881 223.739C266.881 225.331 267.805 226.493 269.386 226.493C270.953 226.493 271.863 225.331 271.863 223.739C271.863 222.133 270.953 220.986 269.386 220.986C267.805 220.986 266.881 222.133 266.881 223.739ZM276.621 227.382C275.084 227.382 274.174 226.55 274.174 225.331C274.174 224.055 275.189 223.252 276.874 223.123L279.261 222.936V222.707C279.261 221.344 278.411 220.914 277.352 220.914C276.099 220.914 275.353 221.459 275.353 222.391H274.413C274.413 220.986 275.606 220.082 277.381 220.082C279.052 220.082 280.275 220.885 280.275 222.721V227.21H279.41L279.276 225.991C278.828 226.866 277.844 227.382 276.621 227.382ZM276.859 226.579C278.381 226.579 279.261 225.561 279.261 224.055V223.682L277.128 223.84C275.77 223.955 275.219 224.528 275.219 225.303C275.219 226.149 275.875 226.579 276.859 226.579ZM283.865 227.21H282.851V221.101H281.404V220.269H282.851V218.074H283.865V220.269H285.312V221.101H283.865V227.21ZM287.681 227.196H286.652V216.755H287.681V221.473C288.143 220.642 289.023 220.082 290.231 220.082C292.126 220.082 292.976 221.215 292.976 222.965V227.21H291.947V223.18C291.947 221.559 291.156 220.986 290.038 220.986C288.486 220.986 287.681 222.09 287.681 223.424V227.196ZM300.82 227.21H299.806V221.101H298.359V220.269H299.806V218.074H300.82V220.269H302.267V221.101H300.82V227.21ZM303.027 223.739C303.027 221.617 304.579 220.082 306.697 220.082C308.815 220.082 310.366 221.617 310.366 223.739C310.366 225.848 308.815 227.382 306.697 227.382C304.579 227.382 303.027 225.848 303.027 223.739ZM304.072 223.725C304.072 225.36 305.145 226.493 306.697 226.493C308.233 226.493 309.322 225.36 309.322 223.725C309.322 222.119 308.233 220.971 306.697 220.971C305.145 220.971 304.072 222.119 304.072 223.725ZM318.222 227.382C316.686 227.382 315.776 226.55 315.776 225.331C315.776 224.055 316.79 223.252 318.476 223.123L320.862 222.936V222.707C320.862 221.344 320.012 220.914 318.953 220.914C317.7 220.914 316.954 221.459 316.954 222.391H316.014C316.014 220.986 317.208 220.082 318.983 220.082C320.653 220.082 321.876 220.885 321.876 222.721V227.21H321.011L320.877 225.991C320.43 226.866 319.445 227.382 318.222 227.382ZM318.461 226.579C319.982 226.579 320.862 225.561 320.862 224.055V223.682L318.729 223.84C317.372 223.955 316.82 224.528 316.82 225.303C316.82 226.149 317.476 226.579 318.461 226.579ZM327.572 223.754C327.572 221.574 328.959 220.082 331.062 220.082C332.732 220.082 333.956 221.015 334.239 222.449H333.21C332.941 221.488 332.076 220.957 331.077 220.957C329.615 220.957 328.586 222.033 328.586 223.739C328.586 225.389 329.54 226.493 331.002 226.493C332.076 226.493 332.941 225.919 333.225 225.03H334.269C333.926 226.45 332.643 227.382 331.002 227.382C328.959 227.382 327.572 225.934 327.572 223.754ZM336.901 227.21H335.872V216.755H336.901V227.21ZM342.118 227.382C340 227.382 338.583 225.919 338.583 223.739C338.583 221.574 339.985 220.082 342.044 220.082C343.998 220.082 345.325 221.416 345.325 223.381V223.869H339.583C339.657 225.561 340.582 226.536 342.133 226.536C343.311 226.536 344.072 226.048 344.341 225.131H345.325C344.937 226.593 343.819 227.382 342.118 227.382ZM342.044 220.928C340.686 220.928 339.791 221.789 339.612 223.151H344.296C344.296 221.818 343.401 220.928 342.044 220.928ZM348.971 227.382C347.435 227.382 346.525 226.55 346.525 225.331C346.525 224.055 347.539 223.252 349.225 223.123L351.611 222.936V222.707C351.611 221.344 350.761 220.914 349.702 220.914C348.449 220.914 347.703 221.459 347.703 222.391H346.764C346.764 220.986 347.957 220.082 349.732 220.082C351.402 220.082 352.626 220.885 352.626 222.721V227.21H351.76L351.626 225.991C351.179 226.866 350.194 227.382 348.971 227.382ZM349.21 226.579C350.731 226.579 351.611 225.561 351.611 224.055V223.682L349.478 223.84C348.121 223.955 347.569 224.528 347.569 225.303C347.569 226.149 348.225 226.579 349.21 226.579ZM355.721 227.21H354.691V220.269H355.586L355.735 221.473C356.213 220.584 357.167 220.082 358.212 220.082C360.195 220.082 361.016 221.215 361.016 222.965V227.21H359.987V223.18C359.987 221.559 359.226 220.986 358.033 220.986C356.556 220.986 355.721 222.018 355.721 223.582V227.21ZM366.095 227.382C363.977 227.382 362.56 225.919 362.56 223.739C362.56 221.574 363.962 220.082 366.02 220.082C367.974 220.082 369.301 221.416 369.301 223.381V223.869H363.559C363.633 225.561 364.558 226.536 366.109 226.536C367.288 226.536 368.049 226.048 368.317 225.131H369.301C368.914 226.593 367.795 227.382 366.095 227.382ZM366.02 220.928C364.663 220.928 363.768 221.789 363.589 223.151H368.272C368.272 221.818 367.377 220.928 366.02 220.928ZM374.721 220.183V221.072H374.154C372.826 221.072 371.976 221.932 371.976 223.252V227.21H370.947V220.269H371.916L371.991 221.344C372.274 220.599 373.035 220.111 374.049 220.111C374.273 220.111 374.467 220.125 374.721 220.183ZM379.614 225.26H380.598C380.598 226.063 381.225 226.565 382.239 226.565C383.358 226.565 384.014 226.106 384.014 225.36C384.014 224.786 383.716 224.457 382.866 224.256L381.628 223.955C380.375 223.653 379.763 223.022 379.763 222.076C379.763 220.857 380.822 220.082 382.373 220.082C383.895 220.082 384.879 220.885 384.924 222.176H383.925C383.895 221.373 383.313 220.9 382.344 220.9C381.329 220.9 380.763 221.316 380.763 222.061C380.763 222.592 381.15 222.965 381.941 223.151L383.179 223.453C384.432 223.754 384.999 224.313 384.999 225.317C384.999 226.565 383.895 227.382 382.254 227.382C380.628 227.382 379.614 226.55 379.614 225.26ZM386.693 230.236V220.269H387.588L387.693 221.674C388.2 220.599 389.214 220.082 390.422 220.082C392.511 220.082 393.764 221.617 393.764 223.711C393.764 225.805 392.555 227.382 390.422 227.382C389.199 227.382 388.23 226.88 387.723 225.876V230.236H386.693ZM387.738 223.739C387.738 225.331 388.662 226.493 390.243 226.493C391.81 226.493 392.719 225.331 392.719 223.739C392.719 222.133 391.81 220.986 390.243 220.986C388.662 220.986 387.738 222.133 387.738 223.739ZM397.478 227.382C395.941 227.382 395.031 226.55 395.031 225.331C395.031 224.055 396.046 223.252 397.731 223.123L400.118 222.936V222.707C400.118 221.344 399.268 220.914 398.208 220.914C396.956 220.914 396.21 221.459 396.21 222.391H395.27C395.27 220.986 396.463 220.082 398.238 220.082C399.909 220.082 401.132 220.885 401.132 222.721V227.21H400.267L400.133 225.991C399.685 226.866 398.701 227.382 397.478 227.382ZM397.716 226.579C399.238 226.579 400.118 225.561 400.118 224.055V223.682L397.985 223.84C396.627 223.955 396.076 224.528 396.076 225.303C396.076 226.149 396.732 226.579 397.716 226.579ZM402.69 223.754C402.69 221.574 404.077 220.082 406.18 220.082C407.851 220.082 409.074 221.015 409.357 222.449H408.328C408.06 221.488 407.194 220.957 406.195 220.957C404.733 220.957 403.704 222.033 403.704 223.739C403.704 225.389 404.659 226.493 406.12 226.493C407.194 226.493 408.059 225.919 408.343 225.03H409.387C409.044 226.45 407.761 227.382 406.12 227.382C404.077 227.382 402.69 225.934 402.69 223.754ZM413.974 227.382C411.856 227.382 410.439 225.919 410.439 223.739C410.439 221.574 411.841 220.082 413.899 220.082C415.853 220.082 417.181 221.416 417.181 223.381V223.869H411.438C411.513 225.561 412.437 226.536 413.989 226.536C415.167 226.536 415.928 226.048 416.196 225.131H417.181C416.793 226.593 415.674 227.382 413.974 227.382ZM413.899 220.928C412.542 220.928 411.647 221.789 411.468 223.151H416.151C416.151 221.818 415.256 220.928 413.899 220.928ZM420.139 224.127H419.394C419.274 223.108 419.215 221.215 419.215 219.365V216.941H420.333V219.365C420.333 221.23 420.259 223.108 420.139 224.127ZM419.782 227.411C419.259 227.411 418.842 226.995 418.842 226.507C418.842 226.02 419.259 225.618 419.782 225.618C420.274 225.618 420.706 226.02 420.706 226.507C420.706 226.995 420.274 227.411 419.782 227.411Z" fill="black"/>
<path d="M455.101 249.619H113.9C111.84 249.619 110.171 251.224 110.171 253.205V287.266C110.171 289.246 111.84 290.852 113.9 290.852H455.101C457.16 290.852 458.83 289.246 458.83 287.266V253.205C458.83 251.224 457.16 249.619 455.101 249.619Z" fill="#F3F4F6"/>
<path d="M129.349 273.896C129.192 273.896 129.069 273.857 128.979 273.778C128.897 273.692 128.856 273.57 128.856 273.412V266.722C128.856 266.564 128.897 266.446 128.979 266.367C129.069 266.281 129.196 266.238 129.36 266.238H133.421C133.547 266.238 133.644 266.27 133.712 266.334C133.779 266.399 133.812 266.489 133.812 266.603C133.812 266.725 133.779 266.818 133.712 266.883C133.644 266.948 133.547 266.98 133.421 266.98H129.774V269.626H133.186C133.313 269.626 133.409 269.658 133.477 269.723C133.551 269.787 133.588 269.877 133.588 269.992C133.588 270.114 133.551 270.207 133.477 270.271C133.409 270.336 133.313 270.368 133.186 270.368H129.774V273.412C129.774 273.735 129.632 273.896 129.349 273.896ZM136.666 273.918C136.226 273.918 135.861 273.842 135.57 273.692C135.286 273.534 135.07 273.301 134.921 272.993C134.779 272.684 134.708 272.301 134.708 271.842V268.959C134.708 268.808 134.746 268.697 134.82 268.626C134.902 268.554 135.014 268.518 135.156 268.518C135.305 268.518 135.417 268.554 135.491 268.626C135.573 268.697 135.615 268.808 135.615 268.959V271.831C135.615 272.29 135.711 272.634 135.905 272.864C136.107 273.086 136.42 273.197 136.845 273.197C137.307 273.197 137.684 273.046 137.975 272.745C138.266 272.444 138.411 272.05 138.411 271.562V268.959C138.411 268.808 138.449 268.697 138.523 268.626C138.605 268.554 138.721 268.518 138.87 268.518C139.012 268.518 139.12 268.554 139.194 268.626C139.276 268.697 139.317 268.808 139.317 268.959V273.444C139.317 273.746 139.172 273.896 138.881 273.896C138.739 273.896 138.628 273.857 138.545 273.778C138.471 273.699 138.434 273.588 138.434 273.444V272.466L138.579 272.616C138.43 273.039 138.184 273.362 137.841 273.584C137.505 273.807 137.114 273.918 136.666 273.918ZM142.668 273.918C142.131 273.918 141.721 273.76 141.438 273.444C141.154 273.129 141.013 272.677 141.013 272.089V266.603C141.013 266.46 141.05 266.352 141.125 266.281C141.199 266.202 141.311 266.162 141.46 266.162C141.602 266.162 141.714 266.202 141.796 266.281C141.878 266.352 141.919 266.46 141.919 266.603V272.025C141.919 272.412 141.997 272.702 142.154 272.896C142.318 273.082 142.557 273.175 142.87 273.175C142.937 273.175 142.997 273.172 143.049 273.165C143.101 273.158 143.153 273.154 143.205 273.154C143.287 273.147 143.343 273.165 143.373 273.208C143.41 273.251 143.429 273.337 143.429 273.466C143.429 273.595 143.399 273.692 143.34 273.756C143.28 273.821 143.183 273.864 143.049 273.885C142.989 273.893 142.926 273.9 142.859 273.907C142.791 273.914 142.728 273.918 142.668 273.918ZM145.979 273.918C145.442 273.918 145.031 273.76 144.748 273.444C144.465 273.129 144.323 272.677 144.323 272.089V266.603C144.323 266.46 144.36 266.352 144.435 266.281C144.509 266.202 144.621 266.162 144.77 266.162C144.912 266.162 145.024 266.202 145.106 266.281C145.188 266.352 145.229 266.46 145.229 266.603V272.025C145.229 272.412 145.307 272.702 145.464 272.896C145.628 273.082 145.867 273.175 146.18 273.175C146.247 273.175 146.307 273.172 146.359 273.165C146.411 273.158 146.463 273.154 146.516 273.154C146.598 273.147 146.654 273.165 146.683 273.208C146.721 273.251 146.739 273.337 146.739 273.466C146.739 273.595 146.71 273.692 146.65 273.756C146.59 273.821 146.493 273.864 146.359 273.885C146.299 273.893 146.236 273.9 146.169 273.907C146.102 273.914 146.038 273.918 145.979 273.918ZM151.077 273.896C150.935 273.896 150.827 273.86 150.752 273.789C150.678 273.71 150.64 273.599 150.64 273.455V266.614C150.64 266.471 150.678 266.36 150.752 266.281C150.827 266.202 150.924 266.162 151.043 266.162C151.162 266.162 151.248 266.184 151.3 266.227C151.36 266.263 151.427 266.331 151.502 266.431L156.379 272.681H156.111V266.593C156.111 266.456 156.148 266.352 156.223 266.281C156.297 266.202 156.405 266.162 156.547 266.162C156.681 266.162 156.782 266.202 156.849 266.281C156.924 266.352 156.961 266.456 156.961 266.593V273.466C156.961 273.602 156.927 273.71 156.86 273.789C156.801 273.86 156.711 273.896 156.592 273.896C156.48 273.896 156.39 273.875 156.323 273.832C156.256 273.789 156.185 273.72 156.111 273.627L151.244 267.378H151.502V273.455C151.502 273.599 151.464 273.71 151.39 273.789C151.315 273.86 151.211 273.896 151.077 273.896ZM160.51 273.918C160.137 273.918 159.801 273.85 159.503 273.713C159.212 273.57 158.981 273.376 158.809 273.132C158.638 272.889 158.552 272.616 158.552 272.315C158.552 271.928 158.653 271.623 158.854 271.401C159.063 271.178 159.402 271.021 159.872 270.927C160.349 270.834 160.998 270.788 161.819 270.788H162.322V271.358H161.83C161.226 271.358 160.748 271.386 160.398 271.444C160.055 271.494 159.812 271.584 159.671 271.713C159.537 271.842 159.469 272.025 159.469 272.261C159.469 272.555 159.574 272.795 159.783 272.982C159.999 273.168 160.29 273.262 160.655 273.262C160.954 273.262 161.215 273.193 161.438 273.057C161.669 272.921 161.848 272.734 161.975 272.498C162.11 272.261 162.177 271.989 162.177 271.68V270.454C162.177 270.01 162.083 269.69 161.897 269.497C161.711 269.296 161.405 269.196 160.98 269.196C160.719 269.196 160.458 269.228 160.197 269.292C159.936 269.357 159.66 269.461 159.369 269.604C159.264 269.655 159.175 269.673 159.1 269.658C159.026 269.637 158.966 269.597 158.921 269.54C158.876 269.482 158.85 269.418 158.843 269.346C158.835 269.267 158.85 269.192 158.888 269.12C158.932 269.049 159 268.991 159.089 268.948C159.417 268.79 159.742 268.676 160.062 268.604C160.383 268.532 160.689 268.496 160.98 268.496C161.449 268.496 161.837 268.572 162.143 268.722C162.449 268.866 162.676 269.088 162.825 269.389C162.975 269.683 163.049 270.063 163.049 270.529V273.444C163.049 273.588 163.012 273.699 162.937 273.778C162.87 273.857 162.77 273.896 162.635 273.896C162.494 273.896 162.385 273.857 162.311 273.778C162.236 273.699 162.199 273.588 162.199 273.444V272.605H162.3C162.24 272.878 162.124 273.111 161.953 273.305C161.789 273.498 161.584 273.649 161.338 273.756C161.091 273.864 160.816 273.918 160.51 273.918ZM165.2 273.896C165.051 273.896 164.939 273.857 164.865 273.778C164.79 273.699 164.753 273.588 164.753 273.444V268.959C164.753 268.816 164.79 268.708 164.865 268.636C164.939 268.557 165.047 268.518 165.189 268.518C165.331 268.518 165.439 268.557 165.513 268.636C165.595 268.708 165.636 268.816 165.636 268.959V269.906L165.513 269.755C165.655 269.353 165.883 269.045 166.196 268.83C166.516 268.608 166.897 268.496 167.337 268.496C167.799 268.496 168.172 268.604 168.456 268.819C168.746 269.027 168.94 269.353 169.037 269.798H168.869C169.004 269.396 169.242 269.081 169.585 268.851C169.936 268.615 170.342 268.496 170.805 268.496C171.215 268.496 171.551 268.572 171.812 268.722C172.08 268.873 172.281 269.102 172.416 269.411C172.55 269.712 172.617 270.096 172.617 270.562V273.444C172.617 273.588 172.576 273.699 172.494 273.778C172.419 273.857 172.308 273.896 172.158 273.896C172.017 273.896 171.905 273.857 171.823 273.778C171.748 273.699 171.711 273.588 171.711 273.444V270.605C171.711 270.124 171.625 269.773 171.454 269.551C171.282 269.321 170.991 269.206 170.581 269.206C170.134 269.206 169.779 269.357 169.518 269.658C169.265 269.952 169.138 270.354 169.138 270.863V273.444C169.138 273.588 169.097 273.699 169.015 273.778C168.94 273.857 168.828 273.896 168.679 273.896C168.538 273.896 168.426 273.857 168.344 273.778C168.269 273.699 168.232 273.588 168.232 273.444V270.605C168.232 270.124 168.142 269.773 167.963 269.551C167.792 269.321 167.505 269.206 167.102 269.206C166.654 269.206 166.3 269.357 166.039 269.658C165.786 269.952 165.659 270.354 165.659 270.863V273.444C165.659 273.746 165.506 273.896 165.2 273.896ZM176.761 273.918C176.187 273.918 175.691 273.81 175.273 273.595C174.863 273.373 174.542 273.061 174.311 272.659C174.088 272.258 173.976 271.777 173.976 271.218C173.976 270.673 174.088 270.2 174.311 269.798C174.535 269.389 174.841 269.07 175.229 268.841C175.624 268.611 176.079 268.496 176.593 268.496C176.959 268.496 177.287 268.557 177.578 268.679C177.869 268.794 178.115 268.963 178.317 269.185C178.525 269.407 178.682 269.676 178.786 269.992C178.898 270.307 178.954 270.662 178.954 271.056C178.954 271.171 178.921 271.257 178.854 271.315C178.786 271.365 178.689 271.39 178.563 271.39H174.669V270.82H178.35L178.171 270.96C178.171 270.572 178.111 270.246 177.992 269.981C177.872 269.708 177.697 269.5 177.466 269.357C177.242 269.214 176.959 269.142 176.616 269.142C176.235 269.142 175.911 269.228 175.642 269.4C175.381 269.565 175.184 269.798 175.05 270.099C174.915 270.393 174.848 270.737 174.848 271.132V271.196C174.848 271.856 175.012 272.358 175.34 272.702C175.676 273.046 176.15 273.219 176.761 273.219C177.015 273.219 177.265 273.186 177.511 273.122C177.764 273.057 178.01 272.95 178.249 272.799C178.354 272.734 178.447 272.706 178.529 272.713C178.619 272.713 178.689 272.738 178.742 272.788C178.794 272.831 178.827 272.889 178.842 272.96C178.865 273.025 178.857 273.097 178.82 273.175C178.79 273.254 178.727 273.322 178.63 273.38C178.384 273.552 178.092 273.685 177.757 273.778C177.421 273.871 177.089 273.918 176.761 273.918Z" fill="#8D8D8D"/>
<path d="M455.101 307.882H113.9C111.84 307.882 110.171 309.488 110.171 311.468V345.53C110.171 347.51 111.84 349.115 113.9 349.115H455.101C457.16 349.115 458.83 347.51 458.83 345.53V311.468C458.83 309.488 457.16 307.882 455.101 307.882Z" fill="#F3F4F6"/>
<path d="M129.36 332.084C129.196 332.084 129.069 332.045 128.979 331.966C128.897 331.88 128.856 331.758 128.856 331.6V324.985C128.856 324.827 128.897 324.709 128.979 324.63C129.069 324.544 129.196 324.501 129.36 324.501H133.521C133.648 324.501 133.745 324.533 133.812 324.598C133.879 324.662 133.913 324.752 133.913 324.867C133.913 324.989 133.879 325.082 133.812 325.146C133.745 325.211 133.648 325.243 133.521 325.243H129.751V327.868H133.286C133.413 327.868 133.51 327.9 133.577 327.964C133.644 328.022 133.678 328.112 133.678 328.233C133.678 328.355 133.644 328.449 133.577 328.513C133.51 328.578 133.413 328.61 133.286 328.61H129.751V331.342H133.521C133.648 331.342 133.745 331.374 133.812 331.439C133.879 331.503 133.913 331.593 133.913 331.708C133.913 331.83 133.879 331.923 133.812 331.987C133.745 332.052 133.648 332.084 133.521 332.084H129.36ZM135.725 332.159C135.576 332.159 135.464 332.12 135.39 332.041C135.315 331.962 135.278 331.851 135.278 331.708V327.222C135.278 327.079 135.315 326.971 135.39 326.9C135.464 326.821 135.572 326.781 135.714 326.781C135.856 326.781 135.964 326.821 136.038 326.9C136.121 326.971 136.162 327.079 136.162 327.222V328.169L136.038 328.018C136.18 327.617 136.408 327.308 136.721 327.093C137.042 326.871 137.422 326.76 137.862 326.76C138.324 326.76 138.697 326.867 138.981 327.082C139.272 327.29 139.465 327.617 139.562 328.061H139.395C139.529 327.66 139.767 327.344 140.111 327.115C140.461 326.878 140.868 326.76 141.33 326.76C141.74 326.76 142.076 326.835 142.337 326.986C142.605 327.136 142.807 327.366 142.941 327.674C143.075 327.975 143.142 328.359 143.142 328.825V331.708C143.142 331.851 143.101 331.962 143.019 332.041C142.945 332.12 142.833 332.159 142.684 332.159C142.542 332.159 142.43 332.12 142.348 332.041C142.273 331.962 142.236 331.851 142.236 331.708V328.868C142.236 328.388 142.15 328.036 141.979 327.814C141.807 327.584 141.516 327.47 141.106 327.47C140.659 327.47 140.304 327.62 140.043 327.921C139.79 328.215 139.663 328.617 139.663 329.126V331.708C139.663 331.851 139.622 331.962 139.54 332.041C139.465 332.12 139.354 332.159 139.204 332.159C139.063 332.159 138.951 332.12 138.869 332.041C138.794 331.962 138.757 331.851 138.757 331.708V328.868C138.757 328.388 138.667 328.036 138.488 327.814C138.317 327.584 138.03 327.47 137.627 327.47C137.18 327.47 136.825 327.62 136.564 327.921C136.311 328.215 136.184 328.617 136.184 329.126V331.708C136.184 332.009 136.031 332.159 135.725 332.159ZM146.548 332.181C146.175 332.181 145.839 332.113 145.541 331.977C145.25 331.833 145.019 331.64 144.848 331.396C144.676 331.152 144.59 330.879 144.59 330.578C144.59 330.191 144.691 329.886 144.892 329.664C145.101 329.442 145.44 329.284 145.91 329.191C146.388 329.097 147.036 329.051 147.857 329.051H148.36V329.621H147.868C147.264 329.621 146.787 329.65 146.436 329.707C146.093 329.757 145.851 329.847 145.709 329.976C145.575 330.105 145.508 330.288 145.508 330.525C145.508 330.819 145.612 331.059 145.821 331.245C146.037 331.432 146.328 331.525 146.693 331.525C146.992 331.525 147.253 331.457 147.476 331.32C147.708 331.184 147.887 330.998 148.013 330.761C148.148 330.524 148.215 330.252 148.215 329.944V328.717C148.215 328.273 148.122 327.954 147.935 327.76C147.749 327.559 147.443 327.459 147.018 327.459C146.757 327.459 146.496 327.491 146.235 327.556C145.974 327.62 145.698 327.724 145.407 327.868C145.302 327.918 145.213 327.936 145.138 327.921C145.064 327.9 145.004 327.861 144.959 327.803C144.915 327.746 144.889 327.681 144.881 327.61C144.874 327.531 144.889 327.455 144.926 327.384C144.971 327.312 145.038 327.255 145.127 327.212C145.455 327.054 145.78 326.939 146.1 326.867C146.421 326.796 146.727 326.76 147.018 326.76C147.488 326.76 147.875 326.835 148.181 326.986C148.487 327.129 148.714 327.351 148.864 327.653C149.013 327.947 149.087 328.327 149.087 328.793V331.708C149.087 331.851 149.05 331.962 148.976 332.041C148.908 332.12 148.808 332.159 148.673 332.159C148.532 332.159 148.424 332.12 148.349 332.041C148.274 331.962 148.237 331.851 148.237 331.708V330.869H148.338C148.278 331.141 148.163 331.374 147.991 331.568C147.827 331.761 147.622 331.912 147.376 332.02C147.13 332.127 146.854 332.181 146.548 332.181ZM151.216 332.138C151.067 332.138 150.955 332.099 150.88 332.02C150.806 331.934 150.768 331.815 150.768 331.665V327.265C150.768 327.115 150.806 327 150.88 326.921C150.955 326.842 151.067 326.803 151.216 326.803C151.358 326.803 151.47 326.842 151.552 326.921C151.634 327 151.675 327.115 151.675 327.265V331.665C151.675 331.815 151.634 331.934 151.552 332.02C151.477 332.099 151.365 332.138 151.216 332.138ZM151.216 325.598C151.03 325.598 150.884 325.551 150.78 325.458C150.675 325.358 150.623 325.225 150.623 325.06C150.623 324.888 150.675 324.759 150.78 324.673C150.884 324.58 151.03 324.533 151.216 324.533C151.41 324.533 151.555 324.58 151.652 324.673C151.757 324.759 151.809 324.888 151.809 325.06C151.809 325.225 151.757 325.358 151.652 325.458C151.555 325.551 151.41 325.598 151.216 325.598ZM155.024 332.181C154.487 332.181 154.077 332.023 153.794 331.708C153.51 331.392 153.369 330.94 153.369 330.352V324.867C153.369 324.723 153.406 324.616 153.48 324.544C153.555 324.465 153.667 324.426 153.816 324.426C153.958 324.426 154.07 324.465 154.152 324.544C154.234 324.616 154.275 324.723 154.275 324.867V330.288C154.275 330.675 154.353 330.965 154.51 331.159C154.674 331.346 154.912 331.439 155.226 331.439C155.293 331.439 155.352 331.435 155.405 331.428C155.457 331.421 155.509 331.417 155.561 331.417C155.643 331.41 155.699 331.428 155.729 331.471C155.766 331.514 155.785 331.6 155.785 331.729C155.785 331.858 155.755 331.955 155.695 332.02C155.636 332.084 155.539 332.127 155.405 332.149C155.345 332.156 155.282 332.163 155.214 332.17C155.147 332.177 155.084 332.181 155.024 332.181ZM159.518 332.159C159.399 332.159 159.302 332.134 159.227 332.084C159.16 332.027 159.119 331.955 159.104 331.869C159.097 331.776 159.119 331.672 159.171 331.557L162.248 324.824C162.315 324.68 162.393 324.58 162.483 324.522C162.58 324.458 162.684 324.426 162.796 324.426C162.908 324.426 163.008 324.458 163.098 324.522C163.195 324.58 163.273 324.68 163.333 324.824L166.42 331.557C166.48 331.672 166.503 331.776 166.488 331.869C166.48 331.962 166.443 332.034 166.376 332.084C166.309 332.134 166.215 332.159 166.096 332.159C165.962 332.159 165.854 332.127 165.772 332.063C165.69 331.991 165.622 331.891 165.57 331.761L164.742 329.922L165.19 330.148H160.38L160.838 329.922L160.022 331.761C159.954 331.898 159.884 331.998 159.809 332.063C159.734 332.127 159.637 332.159 159.518 332.159ZM162.785 325.534L160.984 329.61L160.715 329.406H164.854L164.608 329.61L162.807 325.534H162.785ZM169.728 332.181C169.243 332.181 168.818 332.07 168.452 331.848C168.094 331.625 167.815 331.313 167.613 330.912C167.419 330.503 167.323 330.023 167.323 329.47C167.323 328.911 167.419 328.431 167.613 328.029C167.815 327.62 168.094 327.308 168.452 327.093C168.818 326.871 169.243 326.76 169.728 326.76C170.22 326.76 170.641 326.878 170.992 327.115C171.342 327.351 171.577 327.67 171.697 328.072H171.574V324.867C171.574 324.723 171.611 324.616 171.685 324.544C171.767 324.465 171.883 324.426 172.032 324.426C172.174 324.426 172.282 324.465 172.357 324.544C172.439 324.616 172.48 324.723 172.48 324.867V331.708C172.48 331.851 172.442 331.962 172.368 332.041C172.293 332.12 172.181 332.159 172.032 332.159C171.891 332.159 171.779 332.12 171.697 332.041C171.622 331.962 171.585 331.851 171.585 331.708V330.686L171.708 330.836C171.588 331.245 171.35 331.571 170.992 331.815C170.641 332.059 170.22 332.181 169.728 332.181ZM169.918 331.482C170.253 331.482 170.548 331.403 170.802 331.245C171.055 331.087 171.249 330.858 171.383 330.557C171.525 330.256 171.596 329.893 171.596 329.47C171.596 328.818 171.443 328.319 171.137 327.975C170.839 327.631 170.432 327.459 169.918 327.459C169.575 327.459 169.276 327.538 169.023 327.696C168.777 327.846 168.583 328.072 168.441 328.373C168.307 328.667 168.24 329.033 168.24 329.47C168.24 330.116 168.393 330.614 168.699 330.966C169.004 331.31 169.411 331.482 169.918 331.482ZM176.25 332.181C175.765 332.181 175.34 332.07 174.974 331.848C174.616 331.625 174.337 331.313 174.135 330.912C173.942 330.503 173.845 330.023 173.845 329.47C173.845 328.911 173.942 328.431 174.135 328.029C174.337 327.62 174.616 327.308 174.974 327.093C175.34 326.871 175.765 326.76 176.25 326.76C176.742 326.76 177.163 326.878 177.514 327.115C177.864 327.351 178.099 327.67 178.219 328.072H178.096V324.867C178.096 324.723 178.133 324.616 178.207 324.544C178.29 324.465 178.405 324.426 178.554 324.426C178.696 324.426 178.804 324.465 178.879 324.544C178.961 324.616 179.002 324.723 179.002 324.867V331.708C179.002 331.851 178.964 331.962 178.89 332.041C178.815 332.12 178.703 332.159 178.554 332.159C178.413 332.159 178.301 332.12 178.219 332.041C178.144 331.962 178.107 331.851 178.107 331.708V330.686L178.23 330.836C178.111 331.245 177.872 331.571 177.514 331.815C177.163 332.059 176.742 332.181 176.25 332.181ZM176.44 331.482C176.776 331.482 177.07 331.403 177.324 331.245C177.577 331.087 177.771 330.858 177.905 330.557C178.047 330.256 178.118 329.893 178.118 329.47C178.118 328.818 177.965 328.319 177.659 327.975C177.361 327.631 176.955 327.459 176.44 327.459C176.097 327.459 175.799 327.538 175.545 327.696C175.299 327.846 175.105 328.072 174.963 328.373C174.829 328.667 174.762 329.033 174.762 329.47C174.762 330.116 174.915 330.614 175.221 330.966C175.526 331.31 175.933 331.482 176.44 331.482ZM181.161 332.159C181.012 332.159 180.896 332.12 180.814 332.041C180.739 331.962 180.702 331.851 180.702 331.708V327.222C180.702 327.079 180.739 326.971 180.814 326.9C180.889 326.821 180.997 326.781 181.138 326.781C181.28 326.781 181.388 326.821 181.463 326.9C181.545 326.971 181.586 327.079 181.586 327.222V328.094H181.474C181.593 327.67 181.821 327.344 182.157 327.115C182.492 326.885 182.906 326.763 183.398 326.749C183.51 326.742 183.6 326.767 183.667 326.824C183.734 326.875 183.771 326.964 183.779 327.093C183.786 327.215 183.756 327.312 183.689 327.384C183.622 327.455 183.518 327.498 183.376 327.513L183.197 327.534C182.69 327.577 182.298 327.735 182.022 328.008C181.754 328.273 181.619 328.639 181.619 329.105V331.708C181.619 331.851 181.578 331.962 181.496 332.041C181.422 332.12 181.31 332.159 181.161 332.159ZM187.096 332.181C186.522 332.181 186.026 332.073 185.609 331.858C185.198 331.636 184.878 331.324 184.647 330.922C184.423 330.521 184.311 330.04 184.311 329.481C184.311 328.936 184.423 328.463 184.647 328.061C184.87 327.653 185.176 327.333 185.564 327.104C185.959 326.875 186.414 326.76 186.929 326.76C187.294 326.76 187.622 326.821 187.913 326.943C188.204 327.057 188.45 327.226 188.651 327.448C188.86 327.67 189.017 327.939 189.121 328.255C189.233 328.57 189.289 328.925 189.289 329.32C189.289 329.435 189.256 329.521 189.188 329.578C189.121 329.628 189.024 329.653 188.898 329.653H185.005V329.083H188.685L188.506 329.223C188.506 328.836 188.446 328.509 188.327 328.244C188.208 327.972 188.032 327.764 187.801 327.62C187.578 327.477 187.294 327.405 186.951 327.405C186.571 327.405 186.246 327.491 185.978 327.663C185.717 327.828 185.519 328.061 185.385 328.362C185.251 328.656 185.183 329.001 185.183 329.395V329.46C185.183 330.119 185.348 330.621 185.676 330.966C186.011 331.31 186.485 331.482 187.096 331.482C187.35 331.482 187.6 331.45 187.846 331.385C188.1 331.32 188.346 331.213 188.584 331.062C188.689 330.998 188.782 330.969 188.864 330.976C188.953 330.976 189.024 331.001 189.077 331.052C189.129 331.095 189.162 331.152 189.177 331.224C189.2 331.288 189.192 331.36 189.155 331.439C189.125 331.518 189.062 331.586 188.965 331.643C188.719 331.815 188.428 331.948 188.092 332.041C187.756 332.134 187.425 332.181 187.096 332.181ZM192.434 332.181C192.099 332.181 191.76 332.142 191.416 332.063C191.081 331.984 190.768 331.848 190.477 331.654C190.402 331.604 190.35 331.546 190.32 331.482C190.29 331.41 190.279 331.342 190.287 331.277C190.302 331.206 190.331 331.145 190.376 331.095C190.428 331.044 190.488 331.016 190.555 331.009C190.63 330.994 190.712 331.009 190.801 331.052C191.092 331.224 191.372 331.346 191.64 331.417C191.916 331.482 192.188 331.514 192.457 331.514C192.882 331.514 193.203 331.439 193.419 331.288C193.635 331.138 193.743 330.933 193.743 330.675C193.743 330.474 193.673 330.317 193.531 330.202C193.389 330.08 193.165 329.987 192.86 329.922L191.842 329.707C191.372 329.614 191.021 329.452 190.79 329.223C190.566 328.994 190.454 328.696 190.454 328.33C190.454 328.008 190.54 327.731 190.712 327.502C190.891 327.265 191.141 327.082 191.461 326.953C191.782 326.824 192.155 326.76 192.58 326.76C192.908 326.76 193.218 326.803 193.508 326.889C193.807 326.968 194.075 327.097 194.314 327.276C194.388 327.326 194.437 327.387 194.459 327.459C194.489 327.523 194.493 327.592 194.471 327.663C194.456 327.728 194.422 327.785 194.37 327.835C194.318 327.878 194.254 327.904 194.18 327.911C194.105 327.918 194.027 327.896 193.945 327.846C193.721 327.703 193.494 327.599 193.262 327.534C193.031 327.463 192.804 327.427 192.58 327.427C192.162 327.427 191.845 327.506 191.629 327.663C191.413 327.821 191.305 328.029 191.305 328.287C191.305 328.488 191.372 328.653 191.506 328.782C191.64 328.911 191.849 329.004 192.132 329.062L193.15 329.266C193.635 329.366 193.997 329.528 194.236 329.75C194.482 329.965 194.605 330.259 194.605 330.632C194.605 331.105 194.407 331.482 194.012 331.761C193.617 332.041 193.091 332.181 192.434 332.181ZM197.821 332.181C197.485 332.181 197.146 332.142 196.803 332.063C196.467 331.984 196.154 331.848 195.863 331.654C195.789 331.604 195.736 331.546 195.707 331.482C195.677 331.41 195.666 331.342 195.673 331.277C195.688 331.206 195.718 331.145 195.763 331.095C195.815 331.044 195.874 331.016 195.942 331.009C196.016 330.994 196.098 331.009 196.188 331.052C196.479 331.224 196.758 331.346 197.027 331.417C197.303 331.482 197.575 331.514 197.843 331.514C198.268 331.514 198.589 331.439 198.805 331.288C199.022 331.138 199.13 330.933 199.13 330.675C199.13 330.474 199.059 330.317 198.917 330.202C198.776 330.08 198.552 329.987 198.246 329.922L197.228 329.707C196.758 329.614 196.408 329.452 196.177 329.223C195.953 328.994 195.841 328.696 195.841 328.33C195.841 328.008 195.927 327.731 196.098 327.502C196.277 327.265 196.527 327.082 196.848 326.953C197.168 326.824 197.541 326.76 197.966 326.76C198.295 326.76 198.604 326.803 198.895 326.889C199.193 326.968 199.462 327.097 199.7 327.276C199.775 327.326 199.823 327.387 199.846 327.459C199.876 327.523 199.879 327.592 199.857 327.663C199.842 327.728 199.809 327.785 199.756 327.835C199.704 327.878 199.641 327.904 199.566 327.911C199.492 327.918 199.413 327.896 199.331 327.846C199.107 327.703 198.88 327.599 198.649 327.534C198.418 327.463 198.19 327.427 197.966 327.427C197.549 327.427 197.232 327.506 197.016 327.663C196.799 327.821 196.691 328.029 196.691 328.287C196.691 328.488 196.758 328.653 196.892 328.782C197.027 328.911 197.236 329.004 197.519 329.062L198.537 329.266C199.022 329.366 199.383 329.528 199.622 329.75C199.868 329.965 199.991 330.259 199.991 330.632C199.991 331.105 199.794 331.482 199.398 331.761C199.003 332.041 198.477 332.181 197.821 332.181Z" fill="#8D8D8D"/>
<path d="M455.101 428.891H113.9C111.84 428.891 110.171 430.496 110.171 432.476V466.538C110.171 468.518 111.84 470.123 113.9 470.123H455.101C457.16 470.123 458.83 468.518 458.83 466.538V432.476C458.83 430.496 457.16 428.891 455.101 428.891Z" fill="#F3F4F6"/>
<path d="M129.315 453.168C129.166 453.168 129.05 453.128 128.968 453.05C128.894 452.964 128.856 452.849 128.856 452.705V445.961C128.856 445.811 128.897 445.699 128.979 445.628C129.061 445.549 129.177 445.509 129.326 445.509H131.978C132.82 445.509 133.469 445.71 133.924 446.112C134.379 446.506 134.606 447.066 134.606 447.79C134.606 448.507 134.379 449.066 133.924 449.468C133.469 449.869 132.82 450.07 131.978 450.07H129.774V452.705C129.774 452.849 129.736 452.964 129.662 453.05C129.587 453.128 129.472 453.168 129.315 453.168ZM129.774 449.328H131.866C132.47 449.328 132.925 449.199 133.23 448.941C133.544 448.675 133.7 448.292 133.7 447.79C133.7 447.281 133.544 446.897 133.23 446.639C132.925 446.374 132.47 446.241 131.866 446.241H129.774V449.328ZM137.251 453.189C136.878 453.189 136.543 453.121 136.244 452.985C135.953 452.842 135.722 452.648 135.551 452.404C135.379 452.16 135.293 451.888 135.293 451.587C135.293 451.2 135.394 450.895 135.595 450.672C135.804 450.45 136.144 450.292 136.613 450.199C137.091 450.106 137.74 450.059 138.56 450.059H139.063V450.629H138.571C137.967 450.629 137.49 450.658 137.139 450.715C136.796 450.766 136.554 450.855 136.412 450.984C136.278 451.113 136.211 451.296 136.211 451.533C136.211 451.827 136.315 452.067 136.524 452.254C136.74 452.44 137.031 452.533 137.396 452.533C137.695 452.533 137.956 452.465 138.18 452.329C138.411 452.193 138.59 452.006 138.717 451.77C138.851 451.533 138.918 451.26 138.918 450.952V449.726C138.918 449.281 138.825 448.962 138.638 448.769C138.452 448.568 138.146 448.467 137.721 448.467C137.46 448.467 137.199 448.5 136.938 448.564C136.677 448.629 136.401 448.733 136.11 448.876C136.006 448.926 135.916 448.944 135.842 448.93C135.767 448.908 135.707 448.869 135.663 448.812C135.618 448.754 135.592 448.69 135.584 448.618C135.577 448.539 135.592 448.464 135.629 448.392C135.674 448.32 135.741 448.263 135.83 448.22C136.158 448.062 136.483 447.948 136.804 447.876C137.124 447.804 137.43 447.768 137.721 447.768C138.191 447.768 138.579 447.844 138.884 447.994C139.19 448.138 139.418 448.36 139.567 448.661C139.716 448.955 139.79 449.335 139.79 449.801V452.716C139.79 452.86 139.753 452.971 139.679 453.05C139.611 453.128 139.511 453.168 139.377 453.168C139.235 453.168 139.127 453.128 139.052 453.05C138.978 452.971 138.94 452.86 138.94 452.716V451.877H139.041C138.981 452.15 138.866 452.383 138.694 452.576C138.53 452.77 138.325 452.921 138.079 453.028C137.833 453.136 137.557 453.189 137.251 453.189ZM143.306 453.189C142.971 453.189 142.631 453.15 142.288 453.071C141.953 452.992 141.639 452.856 141.349 452.662C141.274 452.612 141.222 452.555 141.192 452.49C141.162 452.419 141.151 452.35 141.158 452.286C141.173 452.214 141.203 452.153 141.248 452.103C141.3 452.053 141.36 452.024 141.427 452.017C141.501 452.003 141.583 452.017 141.673 452.06C141.964 452.232 142.243 452.354 142.512 452.426C142.788 452.49 143.06 452.523 143.329 452.523C143.754 452.523 144.074 452.447 144.291 452.297C144.507 452.146 144.615 451.942 144.615 451.684C144.615 451.483 144.544 451.325 144.403 451.21C144.261 451.088 144.037 450.995 143.731 450.931L142.713 450.715C142.243 450.622 141.893 450.461 141.662 450.231C141.438 450.002 141.326 449.704 141.326 449.339C141.326 449.016 141.412 448.74 141.583 448.51C141.762 448.274 142.012 448.091 142.333 447.962C142.654 447.833 143.027 447.768 143.452 447.768C143.78 447.768 144.089 447.811 144.38 447.897C144.679 447.976 144.947 448.105 145.186 448.285C145.26 448.335 145.309 448.396 145.331 448.467C145.361 448.532 145.365 448.6 145.342 448.672C145.327 448.736 145.294 448.794 145.242 448.844C145.189 448.887 145.126 448.912 145.051 448.919C144.977 448.926 144.899 448.905 144.816 448.855C144.593 448.711 144.365 448.607 144.134 448.543C143.903 448.471 143.675 448.435 143.452 448.435C143.034 448.435 142.717 448.514 142.501 448.672C142.285 448.83 142.176 449.038 142.176 449.296C142.176 449.496 142.243 449.661 142.378 449.79C142.512 449.92 142.721 450.013 143.004 450.07L144.022 450.274C144.507 450.375 144.869 450.536 145.107 450.759C145.353 450.974 145.477 451.268 145.477 451.641C145.477 452.114 145.279 452.49 144.884 452.77C144.488 453.05 143.963 453.189 143.306 453.189ZM148.692 453.189C148.356 453.189 148.017 453.15 147.674 453.071C147.338 452.992 147.025 452.856 146.734 452.662C146.66 452.612 146.608 452.555 146.578 452.49C146.548 452.419 146.537 452.35 146.544 452.286C146.559 452.214 146.589 452.153 146.634 452.103C146.686 452.053 146.746 452.024 146.813 452.017C146.887 452.003 146.969 452.017 147.059 452.06C147.35 452.232 147.629 452.354 147.898 452.426C148.174 452.49 148.446 452.523 148.714 452.523C149.14 452.523 149.46 452.447 149.677 452.297C149.893 452.146 150.001 451.942 150.001 451.684C150.001 451.483 149.93 451.325 149.788 451.21C149.647 451.088 149.423 450.995 149.117 450.931L148.099 450.715C147.629 450.622 147.279 450.461 147.048 450.231C146.824 450.002 146.712 449.704 146.712 449.339C146.712 449.016 146.798 448.74 146.969 448.51C147.148 448.274 147.398 448.091 147.719 447.962C148.04 447.833 148.412 447.768 148.838 447.768C149.166 447.768 149.475 447.811 149.766 447.897C150.064 447.976 150.333 448.105 150.572 448.285C150.646 448.335 150.695 448.396 150.717 448.467C150.747 448.532 150.75 448.6 150.728 448.672C150.713 448.736 150.68 448.794 150.627 448.844C150.575 448.887 150.512 448.912 150.437 448.919C150.363 448.926 150.284 448.905 150.202 448.855C149.979 448.711 149.751 448.607 149.52 448.543C149.289 448.471 149.061 448.435 148.838 448.435C148.42 448.435 148.103 448.514 147.887 448.672C147.67 448.83 147.562 449.038 147.562 449.296C147.562 449.496 147.629 449.661 147.764 449.79C147.898 449.92 148.107 450.013 148.39 450.07L149.408 450.274C149.893 450.375 150.255 450.536 150.493 450.759C150.739 450.974 150.862 451.268 150.862 451.641C150.862 452.114 150.665 452.49 150.269 452.77C149.874 453.05 149.348 453.189 148.692 453.189ZM154.014 453.168C153.887 453.168 153.775 453.136 153.678 453.071C153.581 453.007 153.503 452.903 153.443 452.759L151.776 448.403C151.731 448.281 151.716 448.173 151.731 448.08C151.754 447.987 151.802 447.915 151.877 447.865C151.951 447.815 152.045 447.79 152.157 447.79C152.268 447.79 152.358 447.815 152.425 447.865C152.5 447.915 152.559 448.008 152.604 448.145L154.17 452.447H153.902L155.513 448.145C155.565 448.016 155.628 447.926 155.703 447.876C155.785 447.818 155.889 447.79 156.016 447.79C156.135 447.79 156.236 447.818 156.318 447.876C156.4 447.933 156.463 448.023 156.508 448.145L158.086 452.447H157.828L159.417 448.123C159.469 447.994 159.532 447.908 159.607 447.865C159.682 447.815 159.771 447.79 159.875 447.79C159.995 447.79 160.084 447.818 160.144 447.876C160.211 447.933 160.248 448.008 160.256 448.102C160.263 448.195 160.245 448.295 160.2 448.403L158.533 452.759C158.481 452.895 158.403 452.999 158.298 453.071C158.201 453.136 158.089 453.168 157.963 453.168C157.836 453.168 157.724 453.136 157.627 453.071C157.53 452.999 157.455 452.895 157.403 452.759L155.748 448.392H156.229L154.584 452.759C154.532 452.895 154.457 452.999 154.36 453.071C154.263 453.136 154.148 453.168 154.014 453.168ZM163.724 453.189C163.194 453.189 162.735 453.078 162.348 452.856C161.96 452.634 161.658 452.322 161.441 451.92C161.233 451.511 161.128 451.031 161.128 450.479C161.128 450.063 161.188 449.69 161.307 449.36C161.427 449.023 161.602 448.736 161.833 448.5C162.064 448.263 162.336 448.084 162.65 447.962C162.97 447.833 163.328 447.768 163.724 447.768C164.253 447.768 164.712 447.879 165.1 448.102C165.487 448.324 165.786 448.64 165.995 449.048C166.211 449.45 166.319 449.927 166.319 450.479C166.319 450.895 166.259 451.268 166.14 451.597C166.021 451.927 165.845 452.214 165.614 452.458C165.383 452.695 165.107 452.877 164.786 453.007C164.473 453.128 164.119 453.189 163.724 453.189ZM163.724 452.49C164.059 452.49 164.354 452.411 164.607 452.254C164.861 452.096 165.055 451.866 165.189 451.565C165.331 451.264 165.402 450.902 165.402 450.479C165.402 449.826 165.249 449.328 164.943 448.984C164.645 448.64 164.238 448.467 163.724 448.467C163.381 448.467 163.082 448.546 162.829 448.704C162.583 448.855 162.389 449.081 162.247 449.382C162.113 449.676 162.046 450.041 162.046 450.479C162.046 451.124 162.198 451.623 162.504 451.974C162.81 452.318 163.216 452.49 163.724 452.49ZM168.139 453.168C167.989 453.168 167.874 453.128 167.792 453.05C167.717 452.971 167.68 452.86 167.68 452.716V448.231C167.68 448.087 167.717 447.98 167.792 447.908C167.866 447.829 167.975 447.79 168.116 447.79C168.258 447.79 168.366 447.829 168.441 447.908C168.523 447.98 168.564 448.087 168.564 448.231V449.102H168.452C168.571 448.679 168.799 448.353 169.134 448.123C169.47 447.894 169.884 447.772 170.376 447.758C170.488 447.75 170.577 447.775 170.644 447.833C170.712 447.883 170.749 447.973 170.756 448.102C170.764 448.224 170.734 448.32 170.667 448.392C170.6 448.464 170.495 448.507 170.354 448.521L170.175 448.543C169.667 448.586 169.276 448.743 169 449.016C168.732 449.281 168.597 449.647 168.597 450.113V452.716C168.597 452.86 168.556 452.971 168.474 453.05C168.4 453.128 168.288 453.168 168.139 453.168ZM173.693 453.189C173.209 453.189 172.783 453.078 172.418 452.856C172.06 452.634 171.78 452.322 171.579 451.92C171.385 451.511 171.288 451.031 171.288 450.479C171.288 449.92 171.385 449.439 171.579 449.038C171.78 448.629 172.06 448.317 172.418 448.102C172.783 447.879 173.209 447.768 173.693 447.768C174.186 447.768 174.607 447.887 174.957 448.123C175.308 448.36 175.543 448.679 175.662 449.081H175.539V445.875C175.539 445.732 175.576 445.624 175.651 445.552C175.733 445.474 175.849 445.434 175.998 445.434C176.14 445.434 176.248 445.474 176.322 445.552C176.404 445.624 176.445 445.732 176.445 445.875V452.716C176.445 452.86 176.408 452.971 176.333 453.05C176.259 453.128 176.147 453.168 175.998 453.168C175.856 453.168 175.744 453.128 175.662 453.05C175.588 452.971 175.55 452.86 175.55 452.716V451.694L175.673 451.845C175.554 452.254 175.315 452.58 174.957 452.824C174.607 453.068 174.186 453.189 173.693 453.189ZM173.884 452.49C174.219 452.49 174.514 452.411 174.767 452.254C175.021 452.096 175.215 451.866 175.349 451.565C175.491 451.264 175.562 450.902 175.562 450.479C175.562 449.826 175.409 449.328 175.103 448.984C174.805 448.64 174.398 448.467 173.884 448.467C173.54 448.467 173.242 448.546 172.989 448.704C172.742 448.855 172.549 449.081 172.407 449.382C172.273 449.676 172.206 450.041 172.206 450.479C172.206 451.124 172.358 451.623 172.664 451.974C172.97 452.318 173.376 452.49 173.884 452.49Z" fill="#8D8D8D"/>
<path d="M436.382 449.201C435.242 446.978 432.982 445.474 430.396 445.474C427.81 445.474 425.55 446.979 424.41 449.201C424.362 449.296 424.336 449.401 424.336 449.507C424.336 449.614 424.362 449.719 424.41 449.814C425.55 452.037 427.81 453.541 430.396 453.541C432.982 453.541 435.242 452.036 436.382 449.814C436.43 449.719 436.456 449.614 436.456 449.507C436.456 449.401 436.43 449.296 436.382 449.201ZM430.396 452.532C429.797 452.532 429.211 452.355 428.712 452.022C428.215 451.69 427.826 451.217 427.596 450.665C427.367 450.112 427.307 449.504 427.424 448.917C427.541 448.33 427.83 447.792 428.254 447.368C428.677 446.945 429.218 446.657 429.805 446.54C430.392 446.424 431.002 446.483 431.556 446.712C432.109 446.941 432.582 447.329 432.915 447.827C433.248 448.324 433.426 448.908 433.426 449.507C433.426 449.904 433.347 450.298 433.196 450.665C433.044 451.032 432.82 451.366 432.539 451.647C432.258 451.927 431.923 452.151 431.556 452.303C431.188 452.454 430.794 452.532 430.396 452.532ZM430.396 447.49C430.216 447.493 430.036 447.52 429.864 447.57C430.006 447.764 430.074 448.002 430.057 448.242C430.038 448.482 429.935 448.707 429.765 448.877C429.594 449.046 429.369 449.15 429.128 449.168C428.889 449.186 428.65 449.118 428.456 448.976C428.345 449.382 428.366 449.812 428.513 450.206C428.66 450.601 428.928 450.939 429.278 451.174C429.628 451.408 430.043 451.527 430.464 451.514C430.885 451.501 431.292 451.355 431.627 451.099C431.961 450.844 432.207 450.489 432.329 450.086C432.452 449.684 432.444 449.253 432.308 448.854C432.173 448.456 431.915 448.11 431.572 447.865C431.228 447.62 430.817 447.489 430.396 447.49Z" fill="#8D8D8D"/>
<path d="M455.101 491.636H113.9C111.84 491.636 110.171 493.241 110.171 495.222V529.283C110.171 531.263 111.84 532.869 113.9 532.869H455.101C457.16 532.869 458.83 531.263 458.83 529.283V495.222C458.83 493.241 457.16 491.636 455.101 491.636Z" fill="#F3F4F6"/>
<path d="M132.268 515.935C131.493 515.935 130.829 515.777 130.277 515.461C129.725 515.146 129.3 514.698 129.002 514.117C128.711 513.536 128.566 512.844 128.566 512.041C128.566 511.438 128.648 510.901 128.812 510.427C128.983 509.947 129.226 509.542 129.539 509.212C129.86 508.875 130.251 508.617 130.714 508.437C131.176 508.251 131.694 508.158 132.268 508.158C132.731 508.158 133.171 508.222 133.589 508.351C134.006 508.473 134.368 508.656 134.674 508.9C134.771 508.972 134.834 509.054 134.864 509.147C134.901 509.233 134.905 509.319 134.875 509.405C134.853 509.484 134.808 509.552 134.741 509.61C134.681 509.66 134.607 509.685 134.517 509.685C134.428 509.685 134.327 509.649 134.215 509.578C133.947 509.37 133.652 509.215 133.331 509.115C133.011 509.015 132.664 508.964 132.291 508.964C131.702 508.964 131.202 509.086 130.792 509.33C130.382 509.567 130.072 509.915 129.863 510.374C129.654 510.832 129.55 511.388 129.55 512.041C129.55 512.693 129.654 513.253 129.863 513.719C130.072 514.178 130.382 514.529 130.792 514.773C131.202 515.01 131.702 515.128 132.291 515.128C132.656 515.128 133.003 515.078 133.331 514.977C133.659 514.87 133.961 514.712 134.237 514.504C134.349 514.432 134.45 514.4 134.539 514.407C134.629 514.407 134.704 514.432 134.763 514.482C134.823 514.533 134.864 514.597 134.886 514.676C134.916 514.755 134.916 514.837 134.886 514.923C134.864 515.01 134.808 515.085 134.718 515.149C134.405 515.407 134.036 515.605 133.611 515.741C133.193 515.87 132.746 515.935 132.268 515.935ZM138.127 515.935C137.597 515.935 137.139 515.823 136.751 515.601C136.363 515.379 136.061 515.067 135.845 514.665C135.636 514.257 135.532 513.776 135.532 513.224C135.532 512.808 135.591 512.435 135.711 512.105C135.83 511.768 136.005 511.481 136.236 511.245C136.468 511.008 136.74 510.829 137.053 510.707C137.374 510.578 137.732 510.513 138.127 510.513C138.657 510.513 139.115 510.625 139.503 510.847C139.891 511.069 140.189 511.385 140.398 511.793C140.614 512.195 140.722 512.672 140.722 513.224C140.722 513.64 140.663 514.013 140.543 514.343C140.424 514.672 140.249 514.959 140.018 515.203C139.786 515.44 139.51 515.623 139.19 515.752C138.877 515.874 138.522 515.935 138.127 515.935ZM138.127 515.235C138.463 515.235 138.757 515.156 139.011 514.999C139.264 514.841 139.458 514.612 139.592 514.31C139.734 514.009 139.805 513.647 139.805 513.224C139.805 512.571 139.652 512.073 139.346 511.729C139.048 511.385 138.642 511.213 138.127 511.213C137.784 511.213 137.486 511.291 137.232 511.449C136.986 511.6 136.792 511.826 136.65 512.127C136.516 512.421 136.449 512.787 136.449 513.224C136.449 513.869 136.602 514.368 136.908 514.719C137.213 515.063 137.62 515.235 138.127 515.235ZM142.531 515.913C142.382 515.913 142.27 515.874 142.195 515.795C142.121 515.716 142.083 515.605 142.083 515.461V510.976C142.083 510.832 142.121 510.725 142.195 510.653C142.27 510.574 142.378 510.535 142.52 510.535C142.661 510.535 142.77 510.574 142.844 510.653C142.926 510.725 142.967 510.832 142.967 510.976V511.901L142.844 511.772C143.001 511.356 143.254 511.044 143.605 510.836C143.963 510.621 144.373 510.513 144.835 510.513C145.268 510.513 145.626 510.589 145.909 510.739C146.2 510.89 146.416 511.119 146.558 511.428C146.7 511.729 146.771 512.112 146.771 512.579V515.461C146.771 515.605 146.73 515.716 146.648 515.795C146.573 515.874 146.465 515.913 146.323 515.913C146.174 515.913 146.059 515.874 145.976 515.795C145.902 515.716 145.865 515.605 145.865 515.461V512.632C145.865 512.145 145.764 511.79 145.563 511.567C145.369 511.338 145.055 511.223 144.623 511.223C144.123 511.223 143.724 511.374 143.426 511.675C143.135 511.969 142.99 512.363 142.99 512.858V515.461C142.99 515.762 142.837 515.913 142.531 515.913ZM149.18 515.913C149.038 515.913 148.926 515.874 148.844 515.795C148.77 515.716 148.732 515.605 148.732 515.461V511.288H148.017C147.897 511.288 147.8 511.259 147.726 511.202C147.659 511.137 147.625 511.051 147.625 510.944C147.625 510.836 147.659 510.754 147.726 510.696C147.8 510.639 147.897 510.61 148.017 510.61H148.979L148.732 510.836V510.427C148.732 509.753 148.9 509.237 149.236 508.878C149.579 508.52 150.082 508.315 150.746 508.265L151.082 508.233C151.194 508.226 151.283 508.244 151.35 508.287C151.417 508.323 151.458 508.373 151.473 508.437C151.496 508.502 151.499 508.57 151.484 508.642C151.47 508.713 151.436 508.774 151.384 508.825C151.339 508.875 151.283 508.903 151.216 508.911L150.88 508.932C150.44 508.961 150.123 509.094 149.929 509.33C149.736 509.56 149.639 509.889 149.639 510.32V510.771L149.504 510.61H152.547C152.689 510.61 152.797 510.65 152.872 510.728C152.954 510.807 152.995 510.922 152.995 511.073V515.418C152.995 515.569 152.957 515.687 152.883 515.773C152.808 515.852 152.696 515.892 152.547 515.892C152.398 515.892 152.282 515.852 152.2 515.773C152.126 515.687 152.089 515.569 152.089 515.418V511.288H149.639V515.461C149.639 515.762 149.486 515.913 149.18 515.913ZM152.558 509.352C152.372 509.352 152.227 509.305 152.122 509.212C152.025 509.111 151.977 508.979 151.977 508.814C151.977 508.642 152.025 508.513 152.122 508.427C152.227 508.333 152.372 508.287 152.558 508.287C152.745 508.287 152.887 508.333 152.983 508.427C153.088 508.513 153.14 508.642 153.14 508.814C153.14 508.979 153.088 509.111 152.983 509.212C152.887 509.305 152.745 509.352 152.558 509.352ZM155.149 515.913C155 515.913 154.885 515.874 154.802 515.795C154.728 515.716 154.691 515.605 154.691 515.461V510.976C154.691 510.832 154.728 510.725 154.802 510.653C154.877 510.574 154.985 510.535 155.127 510.535C155.269 510.535 155.377 510.574 155.451 510.653C155.533 510.725 155.574 510.832 155.574 510.976V511.847H155.463C155.582 511.424 155.809 511.098 156.145 510.868C156.481 510.639 156.894 510.517 157.387 510.503C157.499 510.495 157.588 510.521 157.655 510.578C157.722 510.628 157.76 510.718 157.767 510.847C157.774 510.969 157.745 511.066 157.678 511.137C157.61 511.209 157.506 511.252 157.364 511.266L157.185 511.288C156.678 511.331 156.287 511.489 156.011 511.761C155.742 512.026 155.608 512.392 155.608 512.858V515.461C155.608 515.605 155.567 515.716 155.485 515.795C155.41 515.874 155.298 515.913 155.149 515.913ZM159.17 515.913C159.021 515.913 158.909 515.874 158.834 515.795C158.76 515.716 158.722 515.605 158.722 515.461V510.976C158.722 510.832 158.76 510.725 158.834 510.653C158.909 510.574 159.017 510.535 159.159 510.535C159.3 510.535 159.408 510.574 159.483 510.653C159.565 510.725 159.606 510.832 159.606 510.976V511.922L159.483 511.772C159.625 511.37 159.852 511.062 160.165 510.847C160.486 510.625 160.866 510.513 161.306 510.513C161.769 510.513 162.142 510.621 162.425 510.836C162.716 511.044 162.91 511.37 163.007 511.815H162.839C162.973 511.413 163.212 511.098 163.555 510.868C163.906 510.632 164.312 510.513 164.774 510.513C165.185 510.513 165.52 510.589 165.781 510.739C166.05 510.89 166.251 511.119 166.385 511.428C166.52 511.729 166.587 512.112 166.587 512.579V515.461C166.587 515.605 166.546 515.716 166.464 515.795C166.389 515.874 166.277 515.913 166.128 515.913C165.986 515.913 165.874 515.874 165.792 515.795C165.718 515.716 165.681 515.605 165.681 515.461V512.622C165.681 512.141 165.595 511.79 165.423 511.567C165.252 511.338 164.961 511.223 164.551 511.223C164.103 511.223 163.749 511.374 163.488 511.675C163.234 511.969 163.108 512.371 163.108 512.88V515.461C163.108 515.605 163.067 515.716 162.984 515.795C162.91 515.874 162.798 515.913 162.649 515.913C162.507 515.913 162.395 515.874 162.313 515.795C162.239 515.716 162.201 515.605 162.201 515.461V512.622C162.201 512.141 162.112 511.79 161.933 511.567C161.761 511.338 161.474 511.223 161.072 511.223C160.624 511.223 160.27 511.374 160.009 511.675C159.755 511.969 159.628 512.371 159.628 512.88V515.461C159.628 515.762 159.476 515.913 159.17 515.913ZM171.747 515.913C171.598 515.913 171.482 515.874 171.4 515.795C171.325 515.709 171.288 515.594 171.288 515.45V508.706C171.288 508.556 171.329 508.445 171.411 508.373C171.493 508.294 171.609 508.255 171.758 508.255H174.409C175.252 508.255 175.901 508.455 176.356 508.857C176.811 509.251 177.038 509.811 177.038 510.535C177.038 511.252 176.811 511.811 176.356 512.213C175.901 512.614 175.252 512.815 174.409 512.815H172.205V515.45C172.205 515.594 172.168 515.709 172.094 515.795C172.019 515.874 171.903 515.913 171.747 515.913ZM172.205 512.073H174.297C174.901 512.073 175.356 511.944 175.662 511.686C175.975 511.42 176.132 511.037 176.132 510.535C176.132 510.026 175.975 509.642 175.662 509.384C175.356 509.119 174.901 508.986 174.297 508.986H172.205V512.073ZM179.682 515.935C179.309 515.935 178.974 515.866 178.676 515.73C178.385 515.587 178.154 515.393 177.982 515.149C177.811 514.906 177.725 514.633 177.725 514.332C177.725 513.945 177.826 513.64 178.027 513.418C178.236 513.195 178.575 513.038 179.045 512.944C179.522 512.851 180.171 512.804 180.991 512.804H181.495V513.375H181.002C180.398 513.375 179.921 513.403 179.571 513.461C179.227 513.511 178.985 513.6 178.843 513.729C178.709 513.859 178.642 514.041 178.642 514.278C178.642 514.572 178.746 514.812 178.955 514.999C179.171 515.185 179.462 515.278 179.828 515.278C180.126 515.278 180.387 515.21 180.611 515.074C180.842 514.938 181.021 514.751 181.148 514.515C181.282 514.278 181.349 514.006 181.349 513.697V512.471C181.349 512.026 181.256 511.707 181.07 511.514C180.883 511.313 180.577 511.213 180.152 511.213C179.891 511.213 179.63 511.245 179.369 511.309C179.108 511.374 178.832 511.478 178.541 511.621C178.437 511.671 178.347 511.689 178.273 511.675C178.199 511.654 178.139 511.614 178.094 511.557C178.049 511.499 178.023 511.435 178.016 511.363C178.008 511.284 178.023 511.209 178.061 511.137C178.105 511.066 178.173 511.008 178.262 510.965C178.59 510.807 178.914 510.693 179.235 510.621C179.556 510.549 179.861 510.513 180.152 510.513C180.622 510.513 181.01 510.589 181.316 510.739C181.621 510.883 181.849 511.105 181.998 511.406C182.147 511.7 182.222 512.08 182.222 512.546V515.461C182.222 515.605 182.185 515.716 182.11 515.795C182.043 515.874 181.942 515.913 181.808 515.913C181.666 515.913 181.558 515.874 181.483 515.795C181.409 515.716 181.372 515.605 181.372 515.461V514.622H181.472C181.413 514.895 181.297 515.128 181.125 515.321C180.961 515.515 180.756 515.666 180.51 515.773C180.264 515.881 179.988 515.935 179.682 515.935ZM185.738 515.935C185.403 515.935 185.063 515.895 184.72 515.816C184.385 515.737 184.071 515.601 183.781 515.407C183.706 515.357 183.654 515.3 183.624 515.235C183.594 515.164 183.583 515.096 183.59 515.031C183.605 514.959 183.635 514.898 183.68 514.848C183.732 514.798 183.792 514.769 183.859 514.762C183.933 514.748 184.015 514.762 184.105 514.805C184.396 514.977 184.676 515.099 184.944 515.171C185.22 515.235 185.492 515.268 185.761 515.268C186.186 515.268 186.506 515.192 186.723 515.042C186.939 514.891 187.047 514.687 187.047 514.429C187.047 514.228 186.976 514.07 186.835 513.955C186.693 513.833 186.469 513.74 186.163 513.676L185.145 513.461C184.676 513.367 184.325 513.206 184.094 512.977C183.87 512.747 183.758 512.449 183.758 512.084C183.758 511.761 183.844 511.485 184.015 511.256C184.194 511.019 184.444 510.836 184.765 510.707C185.086 510.578 185.459 510.513 185.884 510.513C186.212 510.513 186.521 510.556 186.812 510.642C187.111 510.721 187.379 510.85 187.618 511.03C187.692 511.08 187.741 511.141 187.763 511.213C187.793 511.277 187.797 511.345 187.774 511.417C187.759 511.481 187.726 511.539 187.674 511.589C187.621 511.632 187.558 511.657 187.483 511.664C187.409 511.671 187.331 511.65 187.249 511.6C187.025 511.456 186.797 511.352 186.566 511.288C186.335 511.216 186.107 511.18 185.884 511.18C185.466 511.18 185.149 511.259 184.933 511.417C184.717 511.575 184.608 511.783 184.608 512.041C184.608 512.242 184.676 512.406 184.81 512.536C184.944 512.665 185.153 512.758 185.436 512.815L186.454 513.02C186.939 513.12 187.301 513.281 187.539 513.504C187.785 513.719 187.909 514.013 187.909 514.386C187.909 514.859 187.711 515.235 187.316 515.515C186.92 515.795 186.395 515.935 185.738 515.935ZM191.124 515.935C190.788 515.935 190.449 515.895 190.106 515.816C189.77 515.737 189.457 515.601 189.166 515.407C189.092 515.357 189.039 515.3 189.01 515.235C188.98 515.164 188.968 515.096 188.976 515.031C188.991 514.959 189.021 514.898 189.065 514.848C189.118 514.798 189.177 514.769 189.244 514.762C189.319 514.748 189.401 514.762 189.491 514.805C189.781 514.977 190.061 515.099 190.33 515.171C190.606 515.235 190.878 515.268 191.146 515.268C191.571 515.268 191.892 515.192 192.108 515.042C192.325 514.891 192.433 514.687 192.433 514.429C192.433 514.228 192.362 514.07 192.22 513.955C192.078 513.833 191.855 513.74 191.549 513.676L190.531 513.461C190.061 513.367 189.711 513.206 189.479 512.977C189.256 512.747 189.144 512.449 189.144 512.084C189.144 511.761 189.23 511.485 189.401 511.256C189.58 511.019 189.83 510.836 190.151 510.707C190.471 510.578 190.844 510.513 191.269 510.513C191.597 510.513 191.907 510.556 192.198 510.642C192.496 510.721 192.765 510.85 193.003 511.03C193.078 511.08 193.126 511.141 193.149 511.213C193.179 511.277 193.182 511.345 193.16 511.417C193.145 511.481 193.111 511.539 193.059 511.589C193.007 511.632 192.944 511.657 192.869 511.664C192.794 511.671 192.716 511.65 192.634 511.6C192.41 511.456 192.183 511.352 191.952 511.288C191.72 511.216 191.493 511.18 191.269 511.18C190.852 511.18 190.535 511.259 190.318 511.417C190.102 511.575 189.994 511.783 189.994 512.041C189.994 512.242 190.061 512.406 190.195 512.536C190.33 512.665 190.538 512.758 190.822 512.815L191.84 513.02C192.325 513.12 192.686 513.281 192.925 513.504C193.171 513.719 193.294 514.013 193.294 514.386C193.294 514.859 193.096 515.235 192.701 515.515C192.306 515.795 191.78 515.935 191.124 515.935ZM196.445 515.913C196.318 515.913 196.206 515.881 196.109 515.816C196.013 515.752 195.934 515.648 195.875 515.504L194.208 511.148C194.163 511.026 194.148 510.918 194.163 510.825C194.185 510.732 194.234 510.66 194.308 510.61C194.383 510.56 194.476 510.535 194.588 510.535C194.7 510.535 194.789 510.56 194.857 510.61C194.931 510.66 194.991 510.754 195.036 510.89L196.602 515.192H196.333L197.944 510.89C197.996 510.761 198.06 510.671 198.134 510.621C198.216 510.564 198.321 510.535 198.448 510.535C198.567 510.535 198.668 510.564 198.75 510.621C198.832 510.678 198.895 510.768 198.94 510.89L200.517 515.192H200.26L201.848 510.868C201.901 510.739 201.964 510.653 202.039 510.61C202.113 510.56 202.203 510.535 202.307 510.535C202.426 510.535 202.516 510.564 202.576 510.621C202.643 510.678 202.68 510.754 202.687 510.847C202.695 510.94 202.676 511.04 202.631 511.148L200.965 515.504C200.912 515.641 200.834 515.745 200.73 515.816C200.633 515.881 200.521 515.913 200.394 515.913C200.267 515.913 200.155 515.881 200.058 515.816C199.961 515.745 199.887 515.641 199.835 515.504L198.179 511.137H198.66L197.016 515.504C196.963 515.641 196.889 515.745 196.792 515.816C196.695 515.881 196.579 515.913 196.445 515.913ZM206.155 515.935C205.626 515.935 205.167 515.823 204.779 515.601C204.392 515.379 204.089 515.067 203.873 514.665C203.664 514.257 203.56 513.776 203.56 513.224C203.56 512.808 203.62 512.435 203.739 512.105C203.858 511.768 204.034 511.481 204.265 511.245C204.496 511.008 204.768 510.829 205.081 510.707C205.402 510.578 205.76 510.513 206.155 510.513C206.685 510.513 207.143 510.625 207.531 510.847C207.919 511.069 208.217 511.385 208.426 511.793C208.643 512.195 208.751 512.672 208.751 513.224C208.751 513.64 208.691 514.013 208.572 514.343C208.452 514.672 208.277 514.959 208.046 515.203C207.815 515.44 207.539 515.623 207.218 515.752C206.905 515.874 206.551 515.935 206.155 515.935ZM206.155 515.235C206.491 515.235 206.786 515.156 207.039 514.999C207.293 514.841 207.487 514.612 207.621 514.31C207.763 514.009 207.833 513.647 207.833 513.224C207.833 512.571 207.68 512.073 207.375 511.729C207.076 511.385 206.67 511.213 206.155 511.213C205.812 511.213 205.514 511.291 205.26 511.449C205.014 511.6 204.82 511.826 204.679 512.127C204.544 512.421 204.477 512.787 204.477 513.224C204.477 513.869 204.63 514.368 204.936 514.719C205.242 515.063 205.648 515.235 206.155 515.235ZM210.57 515.913C210.421 515.913 210.306 515.874 210.224 515.795C210.149 515.716 210.112 515.605 210.112 515.461V510.976C210.112 510.832 210.149 510.725 210.224 510.653C210.298 510.574 210.406 510.535 210.548 510.535C210.69 510.535 210.798 510.574 210.872 510.653C210.955 510.725 210.996 510.832 210.996 510.976V511.847H210.884C211.003 511.424 211.23 511.098 211.566 510.868C211.902 510.639 212.316 510.517 212.808 510.503C212.92 510.495 213.009 510.521 213.076 510.578C213.143 510.628 213.181 510.718 213.188 510.847C213.196 510.969 213.166 511.066 213.099 511.137C213.032 511.209 212.927 511.252 212.785 511.266L212.606 511.288C212.099 511.331 211.708 511.489 211.432 511.761C211.163 512.026 211.029 512.392 211.029 512.858V515.461C211.029 515.605 210.988 515.716 210.906 515.795C210.831 515.874 210.72 515.913 210.57 515.913ZM216.125 515.935C215.64 515.935 215.215 515.823 214.849 515.601C214.491 515.379 214.212 515.067 214.01 514.665C213.816 514.257 213.72 513.776 213.72 513.224C213.72 512.665 213.816 512.184 214.01 511.783C214.212 511.374 214.491 511.062 214.849 510.847C215.215 510.625 215.64 510.513 216.125 510.513C216.617 510.513 217.038 510.632 217.389 510.868C217.739 511.105 217.974 511.424 218.094 511.826H217.971V508.62C217.971 508.477 218.008 508.369 218.082 508.298C218.164 508.219 218.28 508.179 218.429 508.179C218.571 508.179 218.679 508.219 218.754 508.298C218.836 508.369 218.877 508.477 218.877 508.62V515.461C218.877 515.605 218.839 515.716 218.765 515.795C218.69 515.874 218.578 515.913 218.429 515.913C218.288 515.913 218.176 515.874 218.094 515.795C218.019 515.716 217.982 515.605 217.982 515.461V514.439L218.105 514.59C217.985 514.999 217.747 515.325 217.389 515.569C217.038 515.813 216.617 515.935 216.125 515.935ZM216.315 515.235C216.651 515.235 216.945 515.156 217.199 514.999C217.452 514.841 217.646 514.612 217.78 514.31C217.922 514.009 217.993 513.647 217.993 513.224C217.993 512.571 217.84 512.073 217.534 511.729C217.236 511.385 216.83 511.213 216.315 511.213C215.972 511.213 215.674 511.291 215.42 511.449C215.174 511.6 214.98 511.826 214.838 512.127C214.704 512.421 214.637 512.787 214.637 513.224C214.637 513.869 214.79 514.368 215.096 514.719C215.401 515.063 215.808 515.235 216.315 515.235Z" fill="#8D8D8D"/>
<path d="M437.314 511.946C436.174 509.723 433.914 508.219 431.328 508.219C428.742 508.219 426.482 509.724 425.342 511.946C425.294 512.041 425.269 512.146 425.269 512.252C425.269 512.359 425.294 512.464 425.342 512.559C426.482 514.782 428.742 516.286 431.328 516.286C433.914 516.286 436.174 514.781 437.314 512.559C437.363 512.464 437.388 512.359 437.388 512.252C437.388 512.146 437.363 512.041 437.314 511.946ZM431.328 515.278C430.729 515.278 430.143 515.1 429.644 514.768C429.147 514.435 428.758 513.963 428.529 513.41C428.299 512.857 428.24 512.249 428.356 511.663C428.474 511.075 428.762 510.537 429.186 510.114C429.609 509.691 430.15 509.402 430.737 509.285C431.324 509.169 431.934 509.228 432.488 509.458C433.042 509.686 433.514 510.074 433.847 510.572C434.18 511.069 434.358 511.654 434.358 512.252C434.358 512.649 434.28 513.043 434.128 513.41C433.976 513.777 433.752 514.111 433.471 514.392C433.19 514.673 432.855 514.896 432.488 515.048C432.121 515.2 431.726 515.278 431.328 515.278ZM431.328 510.236C431.148 510.238 430.968 510.265 430.796 510.315C430.938 510.509 431.006 510.747 430.989 510.987C430.97 511.227 430.867 511.452 430.697 511.622C430.526 511.792 430.301 511.896 430.06 511.914C429.821 511.931 429.582 511.863 429.388 511.721C429.277 512.127 429.298 512.557 429.445 512.952C429.592 513.346 429.86 513.684 430.21 513.919C430.56 514.154 430.975 514.272 431.396 514.259C431.818 514.246 432.224 514.101 432.559 513.844C432.893 513.589 433.139 513.234 433.262 512.831C433.384 512.429 433.376 511.998 433.24 511.599C433.105 511.201 432.847 510.855 432.504 510.61C432.161 510.366 431.749 510.235 431.328 510.236Z" fill="#8D8D8D"/>
<path d="M455.101 366.146H113.9C111.84 366.146 110.171 367.751 110.171 369.731V403.793C110.171 405.773 111.84 407.378 113.9 407.378H455.101C457.16 407.378 458.83 405.773 458.83 403.793V369.731C458.83 367.751 457.16 366.146 455.101 366.146Z" fill="#F3F4F6"/>
<path d="M130.232 392.165C129.815 391.427 129.509 390.67 129.315 389.896C129.121 389.114 129.024 388.322 129.024 387.519C129.024 386.981 129.065 386.45 129.147 385.927C129.237 385.403 129.371 384.887 129.55 384.378C129.729 383.869 129.956 383.367 130.232 382.872C130.285 382.779 130.355 382.721 130.445 382.7C130.542 382.678 130.631 382.685 130.713 382.721C130.803 382.75 130.866 382.811 130.904 382.904C130.941 382.99 130.933 383.101 130.881 383.238C130.687 383.711 130.523 384.184 130.389 384.657C130.255 385.131 130.154 385.604 130.087 386.077C130.02 386.55 129.986 387.031 129.986 387.519C129.986 388.006 130.02 388.487 130.087 388.96C130.161 389.433 130.266 389.903 130.4 390.369C130.534 390.842 130.695 391.319 130.881 391.8C130.941 391.936 130.948 392.047 130.904 392.133C130.866 392.226 130.803 392.287 130.713 392.316C130.631 392.352 130.542 392.359 130.445 392.337C130.355 392.316 130.285 392.259 130.232 392.165ZM134.79 390.444C133.887 390.444 133.201 390.111 132.731 389.444C132.261 388.777 132.027 387.813 132.027 386.551C132.027 385.704 132.131 384.994 132.34 384.421C132.549 383.84 132.858 383.402 133.268 383.108C133.686 382.814 134.193 382.667 134.79 382.667C135.7 382.667 136.386 382.997 136.848 383.657C137.318 384.31 137.553 385.271 137.553 386.54C137.553 387.386 137.448 388.099 137.24 388.68C137.031 389.261 136.721 389.702 136.311 390.003C135.901 390.297 135.394 390.444 134.79 390.444ZM134.79 389.681C135.416 389.681 135.879 389.426 136.177 388.917C136.483 388.401 136.636 387.608 136.636 386.54C136.636 385.464 136.483 384.679 136.177 384.184C135.879 383.682 135.416 383.431 134.79 383.431C134.171 383.431 133.708 383.682 133.402 384.184C133.097 384.686 132.944 385.471 132.944 386.54C132.944 387.608 133.097 388.401 133.402 388.917C133.708 389.426 134.171 389.681 134.79 389.681ZM141.497 390.444C140.595 390.444 139.909 390.111 139.439 389.444C138.969 388.777 138.734 387.813 138.734 386.551C138.734 385.704 138.839 384.994 139.048 384.421C139.256 383.84 139.566 383.402 139.976 383.108C140.394 382.814 140.901 382.667 141.497 382.667C142.407 382.667 143.093 382.997 143.556 383.657C144.026 384.31 144.261 385.271 144.261 386.54C144.261 387.386 144.156 388.099 143.947 388.68C143.739 389.261 143.429 389.702 143.019 390.003C142.609 390.297 142.102 390.444 141.497 390.444ZM141.497 389.681C142.124 389.681 142.586 389.426 142.885 388.917C143.19 388.401 143.343 387.608 143.343 386.54C143.343 385.464 143.19 384.679 142.885 384.184C142.586 383.682 142.124 383.431 141.497 383.431C140.878 383.431 140.416 383.682 140.11 384.184C139.804 384.686 139.652 385.471 139.652 386.54C139.652 387.608 139.804 388.401 140.11 388.917C140.416 389.426 140.878 389.681 141.497 389.681ZM146.057 392.165C145.998 392.259 145.923 392.316 145.834 392.337C145.744 392.359 145.655 392.352 145.565 392.316C145.476 392.28 145.412 392.219 145.375 392.133C145.338 392.047 145.345 391.936 145.397 391.8C145.599 391.319 145.763 390.842 145.89 390.369C146.024 389.903 146.124 389.433 146.192 388.96C146.259 388.487 146.292 388.006 146.292 387.519C146.292 387.031 146.255 386.55 146.18 386.077C146.113 385.604 146.013 385.134 145.878 384.668C145.752 384.195 145.591 383.718 145.397 383.238C145.345 383.101 145.338 382.99 145.375 382.904C145.42 382.811 145.483 382.75 145.565 382.721C145.647 382.685 145.733 382.678 145.822 382.7C145.919 382.721 145.998 382.779 146.057 382.872C146.468 383.603 146.77 384.36 146.963 385.141C147.157 385.923 147.254 386.715 147.254 387.519C147.254 388.056 147.21 388.591 147.12 389.121C147.038 389.645 146.908 390.161 146.729 390.67C146.557 391.179 146.333 391.678 146.057 392.165ZM152.403 387.841C152.291 387.841 152.197 387.809 152.123 387.744C152.048 387.673 152.011 387.587 152.011 387.486C152.011 387.379 152.048 387.293 152.123 387.228C152.197 387.156 152.291 387.121 152.403 387.121H154.92C155.024 387.121 155.113 387.156 155.188 387.228C155.263 387.293 155.3 387.379 155.3 387.486C155.3 387.587 155.263 387.673 155.188 387.744C155.113 387.809 155.024 387.841 154.92 387.841H152.403ZM162.265 390.444C161.363 390.444 160.677 390.111 160.207 389.444C159.737 388.777 159.502 387.813 159.502 386.551C159.502 385.704 159.607 384.994 159.815 384.421C160.024 383.84 160.334 383.402 160.744 383.108C161.162 382.814 161.669 382.667 162.265 382.667C163.175 382.667 163.861 382.997 164.324 383.657C164.794 384.31 165.029 385.271 165.029 386.54C165.029 387.386 164.924 388.099 164.715 388.68C164.506 389.261 164.197 389.702 163.787 390.003C163.377 390.297 162.869 390.444 162.265 390.444ZM162.265 389.681C162.892 389.681 163.354 389.426 163.653 388.917C163.958 388.401 164.111 387.608 164.111 386.54C164.111 385.464 163.958 384.679 163.653 384.184C163.354 383.682 162.892 383.431 162.265 383.431C161.646 383.431 161.184 383.682 160.878 384.184C160.572 384.686 160.42 385.471 160.42 386.54C160.42 387.608 160.572 388.401 160.878 388.917C161.184 389.426 161.646 389.681 162.265 389.681ZM168.973 390.444C168.071 390.444 167.385 390.111 166.915 389.444C166.445 388.777 166.21 387.813 166.21 386.551C166.21 385.704 166.314 384.994 166.523 384.421C166.732 383.84 167.042 383.402 167.452 383.108C167.869 382.814 168.377 382.667 168.973 382.667C169.883 382.667 170.569 382.997 171.032 383.657C171.501 384.31 171.736 385.271 171.736 386.54C171.736 387.386 171.632 388.099 171.423 388.68C171.214 389.261 170.905 389.702 170.495 390.003C170.084 390.297 169.577 390.444 168.973 390.444ZM168.973 389.681C169.6 389.681 170.062 389.426 170.36 388.917C170.666 388.401 170.819 387.608 170.819 386.54C170.819 385.464 170.666 384.679 170.36 384.184C170.062 383.682 169.6 383.431 168.973 383.431C168.354 383.431 167.892 383.682 167.586 384.184C167.28 384.686 167.127 385.471 167.127 386.54C167.127 387.608 167.28 388.401 167.586 388.917C167.892 389.426 168.354 389.681 168.973 389.681ZM175.681 390.444C174.779 390.444 174.092 390.111 173.623 389.444C173.153 388.777 172.918 387.813 172.918 386.551C172.918 385.704 173.022 384.994 173.231 384.421C173.44 383.84 173.749 383.402 174.16 383.108C174.577 382.814 175.084 382.667 175.681 382.667C176.591 382.667 177.277 382.997 177.739 383.657C178.209 384.31 178.444 385.271 178.444 386.54C178.444 387.386 178.34 388.099 178.131 388.68C177.922 389.261 177.613 389.702 177.202 390.003C176.792 390.297 176.285 390.444 175.681 390.444ZM175.681 389.681C176.307 389.681 176.77 389.426 177.068 388.917C177.374 388.401 177.527 387.608 177.527 386.54C177.527 385.464 177.374 384.679 177.068 384.184C176.77 383.682 176.307 383.431 175.681 383.431C175.062 383.431 174.6 383.682 174.294 384.184C173.988 384.686 173.835 385.471 173.835 386.54C173.835 387.608 173.988 388.401 174.294 388.917C174.6 389.426 175.062 389.681 175.681 389.681ZM183.036 387.841C182.924 387.841 182.83 387.809 182.756 387.744C182.681 387.673 182.644 387.587 182.644 387.486C182.644 387.379 182.681 387.293 182.756 387.228C182.83 387.156 182.924 387.121 183.036 387.121H185.553C185.657 387.121 185.746 387.156 185.821 387.228C185.896 387.293 185.933 387.379 185.933 387.486C185.933 387.587 185.896 387.673 185.821 387.744C185.746 387.809 185.657 387.841 185.553 387.841H183.036ZM192.899 390.444C191.996 390.444 191.31 390.111 190.84 389.444C190.37 388.777 190.135 387.813 190.135 386.551C190.135 385.704 190.24 384.994 190.449 384.421C190.658 383.84 190.967 383.402 191.377 383.108C191.795 382.814 192.302 382.667 192.899 382.667C193.809 382.667 194.495 382.997 194.957 383.657C195.427 384.31 195.662 385.271 195.662 386.54C195.662 387.386 195.557 388.099 195.349 388.68C195.14 389.261 194.83 389.702 194.42 390.003C194.01 390.297 193.503 390.444 192.899 390.444ZM192.899 389.681C193.525 389.681 193.988 389.426 194.286 388.917C194.592 388.401 194.745 387.608 194.745 386.54C194.745 385.464 194.592 384.679 194.286 384.184C193.988 383.682 193.525 383.431 192.899 383.431C192.28 383.431 191.817 383.682 191.511 384.184C191.206 384.686 191.053 385.471 191.053 386.54C191.053 387.608 191.206 388.401 191.511 388.917C191.817 389.426 192.28 389.681 192.899 389.681ZM199.606 390.444C198.704 390.444 198.018 390.111 197.548 389.444C197.078 388.777 196.843 387.813 196.843 386.551C196.843 385.704 196.947 384.994 197.156 384.421C197.365 383.84 197.675 383.402 198.085 383.108C198.502 382.814 199.01 382.667 199.606 382.667C200.516 382.667 201.202 382.997 201.665 383.657C202.134 384.31 202.369 385.271 202.369 386.54C202.369 387.386 202.265 388.099 202.056 388.68C201.847 389.261 201.538 389.702 201.128 390.003C200.717 390.297 200.21 390.444 199.606 390.444ZM199.606 389.681C200.233 389.681 200.695 389.426 200.993 388.917C201.299 388.401 201.452 387.608 201.452 386.54C201.452 385.464 201.299 384.679 200.993 384.184C200.695 383.682 200.233 383.431 199.606 383.431C198.987 383.431 198.525 383.682 198.219 384.184C197.913 384.686 197.76 385.471 197.76 386.54C197.76 387.608 197.913 388.401 198.219 388.917C198.525 389.426 198.987 389.681 199.606 389.681ZM206.314 390.444C205.411 390.444 204.725 390.111 204.255 389.444C203.785 388.777 203.55 387.813 203.55 386.551C203.55 385.704 203.655 384.994 203.864 384.421C204.073 383.84 204.382 383.402 204.792 383.108C205.21 382.814 205.717 382.667 206.314 382.667C207.224 382.667 207.91 382.997 208.372 383.657C208.842 384.31 209.077 385.271 209.077 386.54C209.077 387.386 208.972 388.099 208.764 388.68C208.555 389.261 208.245 389.702 207.835 390.003C207.425 390.297 206.918 390.444 206.314 390.444ZM206.314 389.681C206.94 389.681 207.402 389.426 207.701 388.917C208.007 388.401 208.159 387.608 208.159 386.54C208.159 385.464 208.007 384.679 207.701 384.184C207.402 383.682 206.94 383.431 206.314 383.431C205.695 383.431 205.232 383.682 204.926 384.184C204.621 384.686 204.468 385.471 204.468 386.54C204.468 387.608 204.621 388.401 204.926 388.917C205.232 389.426 205.695 389.681 206.314 389.681ZM213.022 390.444C212.12 390.444 211.434 390.111 210.964 389.444C210.494 388.777 210.259 387.813 210.259 386.551C210.259 385.704 210.363 384.994 210.572 384.421C210.781 383.84 211.09 383.402 211.501 383.108C211.918 382.814 212.425 382.667 213.022 382.667C213.932 382.667 214.618 382.997 215.08 383.657C215.55 384.31 215.785 385.271 215.785 386.54C215.785 387.386 215.681 388.099 215.472 388.68C215.263 389.261 214.954 389.702 214.543 390.003C214.133 390.297 213.626 390.444 213.022 390.444ZM213.022 389.681C213.649 389.681 214.111 389.426 214.409 388.917C214.715 388.401 214.868 387.608 214.868 386.54C214.868 385.464 214.715 384.679 214.409 384.184C214.111 383.682 213.649 383.431 213.022 383.431C212.403 383.431 211.941 383.682 211.635 384.184C211.329 384.686 211.176 385.471 211.176 386.54C211.176 387.608 211.329 388.401 211.635 388.917C211.941 389.426 212.403 389.681 213.022 389.681Z" fill="#8D8D8D"/>
<path d="M451.372 592.028H119.493C115.374 592.028 112.035 595.239 112.035 599.199V642.224C112.035 646.185 115.374 649.395 119.493 649.395H451.372C455.49 649.395 458.83 646.185 458.83 642.224V599.199C458.83 595.239 455.49 592.028 451.372 592.028Z" fill="#3B82F6"/>
<path d="M260.116 626.09H258.207V615.606H262.369C264.845 615.606 266.291 616.811 266.291 618.876C266.291 620.282 265.605 621.285 264.323 621.787L266.396 626.09H264.308L262.458 622.175H260.116V626.09ZM260.116 617.241V620.554H262.369C263.577 620.554 264.293 619.937 264.293 618.876C264.293 617.829 263.577 617.241 262.369 617.241H260.116ZM270.703 626.276C268.51 626.276 266.974 624.742 266.974 622.547C266.974 620.325 268.48 618.79 270.643 618.79C272.851 618.79 274.253 620.21 274.253 622.418V622.949L268.704 622.963C268.838 624.211 269.524 624.842 270.733 624.842C271.732 624.842 272.388 624.469 272.597 623.795H274.283C273.969 625.344 272.627 626.276 270.703 626.276ZM270.658 620.224C269.584 620.224 268.928 620.783 268.749 621.845H272.448C272.448 620.869 271.747 620.224 270.658 620.224ZM275.292 622.39C275.292 620.325 276.694 618.776 278.797 618.776C279.901 618.776 280.766 619.22 281.199 619.98L281.303 619.005H282.988V625.731C282.988 628.098 281.512 629.575 279.126 629.575C277.008 629.575 275.561 628.413 275.337 626.52H277.157C277.276 627.438 278.007 627.983 279.126 627.983C280.379 627.983 281.184 627.223 281.184 626.047V624.871C280.722 625.531 279.812 625.947 278.753 625.947C276.665 625.947 275.292 624.441 275.292 622.39ZM277.127 622.347C277.127 623.537 277.917 624.426 279.111 624.426C280.364 624.426 281.139 623.58 281.139 622.347C281.139 621.142 280.379 620.31 279.111 620.31C277.903 620.31 277.127 621.185 277.127 622.347ZM285.782 617.585C285.155 617.585 284.663 617.112 284.663 616.524C284.663 615.936 285.155 615.477 285.782 615.477C286.378 615.477 286.871 615.936 286.871 616.524C286.871 617.112 286.378 617.585 285.782 617.585ZM284.872 626.09V619.005H286.692V626.09H284.872ZM288.004 623.939H289.735C289.749 624.555 290.227 624.943 291.062 624.943C291.912 624.943 292.375 624.613 292.375 624.096C292.375 623.738 292.181 623.48 291.524 623.336L290.197 623.035C288.869 622.748 288.228 622.146 288.228 621.013C288.228 619.622 289.451 618.79 291.152 618.79C292.807 618.79 293.926 619.708 293.941 621.085H292.211C292.196 620.482 291.778 620.095 291.077 620.095C290.361 620.095 289.943 620.411 289.943 620.941C289.943 621.343 290.272 621.601 290.898 621.744L292.226 622.046C293.464 622.318 294.09 622.863 294.09 623.953C294.09 625.387 292.822 626.276 291.002 626.276C289.168 626.276 288.004 625.33 288.004 623.939ZM297.982 626.09H296.162V620.468H294.745V619.005H296.162V616.796H297.982V619.005H299.414V620.468H297.982V626.09ZM303.769 626.276C301.576 626.276 300.04 624.742 300.04 622.547C300.04 620.325 301.546 618.79 303.709 618.79C305.916 618.79 307.319 620.21 307.319 622.418V622.949L301.77 622.963C301.904 624.211 302.59 624.842 303.798 624.842C304.798 624.842 305.454 624.469 305.663 623.795H307.348C307.035 625.344 305.693 626.276 303.769 626.276ZM303.724 620.224C302.65 620.224 301.994 620.783 301.815 621.845H305.514C305.514 620.869 304.813 620.224 303.724 620.224ZM313.399 618.976V620.597H312.727C311.415 620.597 310.594 621.271 310.594 622.648V626.09H308.775V619.019H310.49L310.594 620.052C310.908 619.349 311.609 618.876 312.593 618.876C312.847 618.876 313.1 618.905 313.399 618.976Z" fill="white"/>
</g>
</g>
<path d="M282.202 108.684C288.239 108.684 293.134 103.921 293.134 98.0469C293.134 92.1724 288.239 87.4101 282.202 87.4101C276.165 87.4101 271.27 92.1724 271.27 98.0469C271.27 103.921 276.165 108.684 282.202 108.684Z" fill="#121515"/>
<path fill-rule="evenodd" clip-rule="evenodd" d="M282.202 105.532C286.451 105.532 289.895 102.181 289.895 98.0469C289.895 93.9129 286.451 90.5617 282.202 90.5617C277.954 90.5617 274.51 93.9129 274.51 98.0469C274.51 102.181 277.954 105.532 282.202 105.532Z" fill="#262C2D"/>
<path fill-rule="evenodd" clip-rule="evenodd" d="M282.202 102.725C284.857 102.725 287.01 100.631 287.01 98.0469C287.01 95.4632 284.857 93.3687 282.202 93.3687C279.547 93.3687 277.394 95.4632 277.394 98.0469C277.394 100.631 279.547 102.725 282.202 102.725Z" fill="#121515"/>
<path fill-rule="evenodd" clip-rule="evenodd" d="M282.202 97.8666C282.733 97.8666 283.163 97.4477 283.163 96.9309C283.163 96.4142 282.733 95.9953 282.202 95.9953C281.671 95.9953 281.24 96.4142 281.24 96.9309C281.24 97.4477 281.671 97.8666 282.202 97.8666Z" fill="#636F73"/>
</g>
</g>
<defs>
<clipPath id="clip0_52_2">
<rect width="573" height="789" fill="white"/>
</clipPath>
<clipPath id="clip1_52_2">
<rect width="410" height="871" fill="white" transform="translate(82 66)"/>
</clipPath>
</defs>
</svg>
